<?xml version="1.0" standalone="no"?>
<!DOCTYPE svg PUBLIC "-//W3C//DTD SVG 1.1//EN" "http://www.w3.org/Graphics/SVG/1.1/DTD/svg11.dtd" >
<svg xmlns="http://www.w3.org/2000/svg" xmlns:xlink="http://www.w3.org/1999/xlink" version="1.1">
<metadata>
Created by FontForge 20170731 at Thu Mar 10 17:05:11 2005
 By Aleksey,,,
Font software Copyright 1991 Adobe Systems Incorporated. Typeface designs Copyright 1991 The Monotype Corporation. All rights reserved.
</metadata>
<defs>
<font id="WalbaumMTStd-Medium" horiz-adv-x="469" >
  <font-face 
    font-family="Walbaum MT Std Medium"
    font-weight="500"
    font-stretch="normal"
    units-per-em="1000"
    panose-1="2 2 8 3 5 4 5 2 3 4"
    ascent="610"
    descent="-390"
    x-height="367"
    cap-height="592"
    bbox="-192 -283 1122 838"
    underline-thickness="50"
    underline-position="-200"
    unicode-range="U+0020-FB04"
  />
<missing-glyph horiz-adv-x="500" 
d="M12 0v665h475v-665h-475zM88 618l162 -243l161 243h-323zM60 575v-484l40 61l80 120l41 61zM440 575l-162 -242l162 -243v485zM411 48l-161 242l-162 -242h323z" />
    <glyph glyph-name="f_f" unicode="ff" horiz-adv-x="573" 
d="M472 483v-117h74v-21h-74v-324h69v-21h-242v21h67v324h-174v-324h70v-21h-243v21h67v324h-67v21h67v35q0 51 5.5 84t22.5 64t53 46t92 15q91 0 134 -58q48 58 132 58q60 0 96.5 -24.5t36.5 -67.5q0 -51 -52 -51q-28 0 -42 15.5t-14 41.5q0 3 1.5 17.5t1.5 19.5
q0 10 -10 19t-22 9q-49 0 -49 -106zM366 366v108q-15 -4 -26 -4q-24 0 -38 15.5t-14 36.5q0 8 4.5 21t4.5 20q0 10 -16 18t-28 8q-61 0 -61 -108v-115h174z" />
    <glyph glyph-name="fi" unicode="fi" horiz-adv-x="521" 
d="M78 367v74q0 82 49 127t141 45q39 0 73.5 -8.5t61.5 -32.5t27 -61q0 -24 -13.5 -40t-40.5 -16q-25 0 -40.5 13.5t-15.5 34.5q0 18 10 31q1 2 7 8.5t11 13t5 9.5q0 9 -24.5 18.5t-49.5 9.5q-53 0 -74 -35.5t-21 -118.5v-72h255v-347h57v-20h-215v20h52v323h-149v-323h52
v-20h-215v20h57v323h-60v24h60z" />
    <glyph glyph-name="fl" unicode="fl" horiz-adv-x="521" 
d="M78 367v45q0 57 18 98t47.5 61.5t58.5 29.5t59 9q36 0 60 -7l34 -9h84v-574h50v-20h-208v20h52v454q-9 5 -14 8t-9.5 12t-4.5 22q0 20 7 30q1 1 4.5 6.5t6.5 10t3 6.5q0 8 -17.5 14.5t-39.5 6.5q-45 0 -65 -26.5t-20 -85.5v-111h73v-24h-73v-323h52v-20h-213v20h55v323
h-60v24h60z" />
    <glyph glyph-name="f_f_i" unicode="ffi" horiz-adv-x="781" 
d="M543 589q-55 0 -76 -31t-21 -94v-98h255v-345h62v-21h-218v21h50v324h-149v-324h54v-21h-212v21h52v324h-149v-324h48v-21h-217v21h62v324h-68v21h68v33q0 31 1.5 52t10.5 54t26 53.5t51 36t82 15.5q50 0 79.5 -13t56.5 -37q53 50 137 50q71 0 118 -25t47 -75
q0 -28 -15.5 -41.5t-38.5 -13.5q-25 0 -40.5 13.5t-15.5 34.5q0 18 10 31q0 1 6.5 7t11.5 13t5 11q0 5 -6.5 10t-24 9.5t-42.5 4.5zM340 440v24q-13 2 -21.5 5.5t-14.5 12.5t-6 24q0 24 17 41q8 8 8 12q0 11 -17.5 20.5t-40.5 9.5q-45 0 -59.5 -30t-14.5 -100v-93h149v74z
" />
    <glyph glyph-name="f_f_l" unicode="ffl" horiz-adv-x="781" 
d="M340 345h-149v-324h48v-21h-217v21h62v324h-68v21h68v33q0 31 1.5 52t11 54t26.5 53.5t51 36t82 15.5q84 0 134 -52q50 52 132 52q52 0 90 -18h89v-571h62v-21h-218v21h50v452q-24 15 -24 44q0 23 14 41q5 5 5 10q0 9 -22 16.5t-44 7.5q-27 0 -44.5 -11t-24 -33t-8 -36.5
t-1.5 -38.5v-107h75v-21h-75v-324h54v-21h-212v21h52v324zM340 440v24q-13 2 -21.5 5.5t-14.5 12.5t-6 24q0 24 17 41q8 8 8 12q0 11 -17.5 20.5t-40.5 9.5q-45 0 -59.5 -30t-14.5 -100v-93h149v74z" />
    <glyph glyph-name=".notdef" horiz-adv-x="500" 
d="M12 0v665h475v-665h-475zM88 618l162 -243l161 243h-323zM60 575v-484l40 61l80 120l41 61zM440 575l-162 -242l162 -243v485zM411 48l-161 242l-162 -242h323z" />
    <glyph glyph-name=".null" horiz-adv-x="0" 
 />
    <glyph glyph-name="nonmarkingreturn" horiz-adv-x="333" 
 />
    <glyph glyph-name="space" unicode=" " horiz-adv-x="240" 
 />
    <glyph glyph-name="exclam" unicode="!" horiz-adv-x="219" 
d="M98 174l-44 334q0 1 -2 21.5t-2 31.5q0 49 59 49q33 0 46 -14t13 -43q0 -15 -3 -42l-47 -337h-20zM174 55q0 -26 -19 -45t-45 -19t-45 19t-19 45t19 45t45 19t45 -19t19 -45z" />
    <glyph glyph-name="quotedbl" unicode="&#x22;" horiz-adv-x="417" 
d="M321 328h-20l-44 163q-9 36 -9 56q0 25 18.5 44t44.5 19q28 0 45 -19t17 -42q0 -19 -10 -59zM117 328h-20l-44 163q-9 36 -9 56q0 25 18.5 44t44.5 19q28 0 45 -19t17 -42q0 -19 -10 -59z" />
    <glyph glyph-name="numbersign" unicode="#" horiz-adv-x="667" 
d="M45 434h161l42 200h51l-43 -200h215l42 200h51l-42 -200h100v-52h-110l-39 -188h149v-52h-160l-42 -200h-51l42 200h-216l-41 -200h-51l42 200h-100v52h110l40 188h-150v52zM461 382h-215l-40 -188h216z" />
    <glyph glyph-name="dollar" unicode="$" horiz-adv-x="479" 
d="M218 639h34v-52q48 -2 84 -13.5t53 -25t27 -31.5t11.5 -27.5t1.5 -17.5q0 -10 -3 -20t-13.5 -19.5t-27.5 -9.5q-19 0 -34.5 11t-15.5 39q0 4 3.5 22t3.5 21q0 20 -18.5 32t-33 14.5t-38.5 4.5v-184q36 -15 55 -24t50 -28.5t47 -39t28.5 -50.5t12.5 -69q0 -92 -68 -140
q-45 -32 -125 -41v-128h-34v128q-90 3 -137 41t-47 87q0 27 14.5 43.5t38.5 16.5q20 0 34.5 -12.5t14.5 -36.5q0 -20 -14 -45q-8 -11 -8 -19q0 -3 1.5 -8t8 -13t17 -15t30.5 -12.5t47 -6.5v264q-44 18 -67 29t-51.5 31t-40.5 46t-12 60q0 21 6.5 41.5t23 44t53 40t88.5 20.5
v52zM218 396v170q-30 -6 -50 -17.5t-28 -26t-10.5 -23.5t-2.5 -16q0 -57 91 -87zM252 263v-250q44 6 72 30t37 47t9 45q0 27 -11 48.5t-33.5 37.5t-36 23.5t-37.5 18.5z" />
    <glyph glyph-name="percent" unicode="%" horiz-adv-x="813" 
d="M202 310q35 0 45 35.5t10 142.5q0 59 -12.5 85t-41.5 26q-37 0 -49 -43q-6 -21 -6 -145q0 -101 54 -101zM206 299q-42 0 -71 17.5t-41.5 45t-17 49.5t-4.5 43q0 69 35.5 112.5t95.5 43.5q64 0 97 -45.5t33 -109.5q0 -73 -38 -114.5t-89 -41.5zM600 610h44l-431 -629h-43z
M609 -8q35 0 45 35.5t10 142.5q0 59 -12.5 85t-41.5 26q-37 0 -49 -43q-6 -21 -6 -145q0 -101 54 -101zM613 -19q-42 0 -71 17.5t-41.5 45t-17 49.5t-4.5 43q0 69 35.5 112.5t95.5 43.5q64 0 97 -45.5t33 -109.5q0 -73 -38 -114.5t-89 -41.5z" />
    <glyph glyph-name="ampersand" unicode="&#x26;" horiz-adv-x="729" 
d="M436 385v20h265v-20q-63 0 -90 -22.5t-60 -106.5q-33 -82 -61 -120q17 -28 28.5 -43.5t30 -29.5t38.5 -14q28 0 51 24t23 67q0 40 -20 83l21 8q19 -41 19 -96q0 -67 -38.5 -105t-106.5 -38q-32 0 -59 10t-37.5 18.5t-27.5 24.5q-63 -54 -160 -54q-82 0 -139.5 38
t-57.5 114q0 63 43.5 106.5t149.5 110.5q-34 96 -34 135q0 57 39.5 86t109.5 29q54 0 88.5 -21t34.5 -61q0 -33 -23.5 -55t-105.5 -75q70 -147 120 -239q21 29 38.5 72t17.5 75q0 43 -33 65q-22 14 -64 14zM348 419q74 48 74 104q0 29 -18 48t-43 19q-22 0 -36.5 -17
t-14.5 -39q0 -30 38 -115zM257 339q-86 -58 -86 -118q0 -31 17 -76.5t49.5 -83.5t69.5 -38q46 0 92 41q-77 111 -142 275z" />
    <glyph glyph-name="quotesingle" unicode="'" horiz-adv-x="198" 
d="M109 328h-20l-44 163q-9 36 -9 56q0 25 18.5 44t44.5 19q28 0 45 -19t17 -42q0 -19 -10 -59z" />
    <glyph glyph-name="parenleft" unicode="(" horiz-adv-x="333" 
d="M321 661l12 -17q-46 -38 -70.5 -65.5t-50.5 -75t-37 -115.5t-11 -165q0 -245 43 -329q24 -47 53 -79.5t72 -70.5l-16 -15q-54 39 -95.5 80.5t-81 98t-61.5 130t-22 158.5q0 87 23.5 163t82.5 154q37 49 71 80t88 68z" />
    <glyph glyph-name="parenright" unicode=")" horiz-adv-x="333" 
d="M12 -271l-12 17q46 38 70.5 65.5t50.5 75t37 115.5t11 165q0 245 -43 329q-24 47 -53 79.5t-72 70.5l16 15q54 -39 95.5 -80.5t81 -98t61.5 -130t22 -158.5q0 -87 -23.5 -163t-82.5 -154q-37 -49 -71 -80t-88 -68z" />
    <glyph glyph-name="asterisk" unicode="*" horiz-adv-x="417" 
d="M195 610h27l29 -120l124 32l14 -24l-96 -86l96 -84l-15 -24l-124 34l-29 -121h-26l-30 122l-123 -34l-14 24l93 84l-94 87l14 24l125 -35z" />
    <glyph glyph-name="plus" unicode="+" horiz-adv-x="667" 
d="M70 316h237v237h53v-237h237v-53h-237v-237h-53v237h-237v53z" />
    <glyph glyph-name="comma" unicode="," horiz-adv-x="208" 
d="M61 -162l-15 18q50 27 68 59.5t17 90.5q-17 -15 -41 -15q-28 0 -43 19t-15 44q0 26 17.5 45t47.5 19q41 0 60 -33.5t19 -75.5q0 -82 -55 -134q-24 -22 -60 -37z" />
    <glyph glyph-name="hyphen" unicode="-" horiz-adv-x="313" 
d="M30 224h254v-79h-254v79z" />
    <glyph glyph-name="period" unicode="." horiz-adv-x="208" 
d="M168 55q0 -26 -19 -45t-45 -19t-45 19t-19 45t19 45t45 19t45 -19t19 -45z" />
    <glyph glyph-name="slash" unicode="/" horiz-adv-x="500" 
d="M405 596h54l-365 -751h-53z" />
    <glyph glyph-name="zero" unicode="0" horiz-adv-x="479" 
d="M242 -9q-89 0 -151.5 76.5t-62.5 220.5q0 143 62 221.5t148 78.5q91 0 152.5 -81t61.5 -217q0 -77 -20 -137.5t-52.5 -94t-67.5 -50.5t-70 -17zM237 11q55 0 77 53q22 52 22 275q0 53 -3.5 89.5t-13 71t-29.5 51.5t-50 17q-32 0 -59 -27q-22 -22 -29.5 -72.5t-7.5 -143.5
q0 -174 7 -218q6 -37 19 -57q24 -39 67 -39z" />
    <glyph glyph-name="one" unicode="1" horiz-adv-x="479" 
d="M259 588h35v-568h104v-20h-324v20h110v445q-43 -38 -96 -68l-15 18q67 41 106.5 78.5t79.5 94.5z" />
    <glyph glyph-name="two" unicode="2" horiz-adv-x="479" 
d="M146 93h197q32 0 46 15.5t29 57.5h24l-65 -166h-353v16q38 31 125 112q94 87 134 153t40 137q0 56 -31.5 93.5t-81.5 37.5q-46 0 -82.5 -34.5t-36.5 -89.5q0 -83 99 -144l-14 -26q-17 9 -27 15t-29 22t-30.5 32.5t-20.5 43t-9 56.5q0 72 47.5 118t133.5 46
q88 0 143 -45.5t55 -123.5q0 -68 -40 -116t-133 -116q-84 -62 -120 -94z" />
    <glyph glyph-name="three" unicode="3" horiz-adv-x="479" 
d="M114 574h317l-181 -226q47 1 83.5 -14.5t57 -42t31 -57t10.5 -63.5q0 -32 -10.5 -62t-33 -57.5t-65 -44t-99.5 -16.5q-108 0 -157 59q-33 41 -36 99h30q6 -35 21.5 -60.5t32 -38t37 -20t31 -8.5t18.5 -1q115 0 115 162q0 135 -91 135q-26 0 -72 -24l-18 19l138 173h-150
q-26 0 -44 -38h-27z" />
    <glyph glyph-name="four" unicode="4" horiz-adv-x="479" 
d="M332 588h30v-391h18q16 0 27.5 6t17 12t9 19t3.5 15.5t1 12.5h21v-157h-21q-1 36 -19 49.5t-57 14.5v-178h-110v178h-239v21zM252 197v252h-2l-201 -252h203z" />
    <glyph glyph-name="five" unicode="5" horiz-adv-x="479" 
d="M394 615h24q-3 -11 -9.5 -27.5t-20.5 -44.5t-39 -46.5t-54 -18.5h-157l-25 -150l2 -2q28 30 56.5 45.5t76.5 15.5q88 0 138.5 -54t50.5 -136q0 -92 -59.5 -149t-156.5 -57q-48 0 -84 14.5t-54.5 34t-30 45.5t-14.5 42.5t-4 32.5l27 7q8 -71 52 -109.5t90 -38.5
q44 0 77 33q41 41 41 151q0 157 -95 157q-17 0 -36 -6t-46.5 -32.5t-42.5 -70.5l-22 2l53 321h214q32 0 48 41z" />
    <glyph glyph-name="six" unicode="6" horiz-adv-x="479" 
d="M145 318l2 -2q14 20 25.5 32.5t39 25.5t63.5 13q80 0 128 -53t48 -138q0 -96 -60 -150.5t-147 -54.5q-88 0 -149.5 63.5t-61.5 199.5q0 153 67.5 243.5t179.5 90.5q62 0 106 -24.5t44 -77.5q0 -23 -12 -39t-36 -16t-36.5 13.5t-12.5 37.5q0 16 7 28q1 1 8.5 14t7.5 16
q0 10 -22.5 19t-44.5 9q-67 0 -106 -60q-35 -55 -38 -190zM256 359q-38 0 -71 -33q-44 -44 -44 -152q0 -163 98 -163q38 0 64 28q32 36 32 159q0 161 -79 161z" />
    <glyph glyph-name="seven" unicode="7" horiz-adv-x="479" 
d="M87 574h369q-210 -268 -218 -583h-120q3 59 26 125.5t65 138t72 116.5t77 110h-248q-22 0 -31 -12.5t-24 -58.5h-23z" />
    <glyph glyph-name="eight" unicode="8" horiz-adv-x="479" 
d="M341 337q105 -56 105 -165q0 -80 -56.5 -130.5t-153.5 -50.5q-88 0 -145 42.5t-57 114.5q0 33 11 58.5t32 42.5t34 24.5t34 16.5q-96 54 -96 145q0 68 50 110.5t141 42.5q80 0 134 -34t54 -101q0 -31 -16.5 -56.5t-31.5 -36t-39 -23.5zM177 277q-18 -10 -29 -20
t-22.5 -37.5t-11.5 -65.5q0 -71 33 -107t90 -36t93 36t36 86q0 68 -66 101q-9 4 -62 22t-61 21zM313 350q31 28 31 93q0 56 -28.5 90.5t-79.5 34.5q-40 0 -71.5 -26t-31.5 -64q0 -27 16.5 -50t42.5 -36q10 -5 64.5 -23t56.5 -19z" />
    <glyph glyph-name="nine" unicode="9" horiz-adv-x="479" 
d="M334 261l-2 2q-14 -20 -25.5 -32.5t-39 -25.5t-63.5 -13q-80 0 -128 53t-48 138q0 96 60 150.5t147 54.5q88 0 149.5 -63.5t61.5 -199.5q0 -153 -67.5 -243.5t-179.5 -90.5q-62 0 -106 24.5t-44 77.5q0 23 12 39t36 16t36.5 -13.5t12.5 -37.5q0 -16 -7 -28
q-1 -1 -8.5 -14t-7.5 -16q0 -10 22.5 -19t44.5 -9q67 0 106 60q35 55 38 190zM223 220q38 0 71 33q44 44 44 152q0 163 -98 163q-38 0 -64 -28q-32 -36 -32 -159q0 -161 79 -161z" />
    <glyph glyph-name="colon" unicode=":" horiz-adv-x="208" 
d="M168 55q0 -26 -19 -45t-45 -19t-45 19t-19 45t19 45t45 19t45 -19t19 -45zM168 313q0 -26 -19 -45t-45 -19t-45 19t-19 45t19 45t45 19t45 -19t19 -45z" />
    <glyph glyph-name="semicolon" unicode=";" horiz-adv-x="208" 
d="M61 -162l-15 18q50 27 68 59.5t17 90.5q-17 -15 -41 -15q-28 0 -43 19t-15 44q0 26 17.5 45t47.5 19q41 0 60 -33.5t19 -75.5q0 -82 -55 -134q-24 -22 -60 -37zM168 313q0 -26 -19 -45t-45 -19t-45 19t-19 45t19 45t45 19t45 -19t19 -45z" />
    <glyph glyph-name="less" unicode="&#x3c;" horiz-adv-x="667" 
d="M597 536v-58l-457 -189l457 -188v-57l-527 222v47z" />
    <glyph glyph-name="equal" unicode="=" horiz-adv-x="667" 
d="M70 430h527v-53h-527v53zM70 202h527v-53h-527v53z" />
    <glyph glyph-name="greater" unicode="&#x3e;" horiz-adv-x="667" 
d="M70 536l527 -223v-47l-527 -222v57l457 188l-457 189v58z" />
    <glyph glyph-name="question" unicode="?" horiz-adv-x="365" 
d="M134 176h-19q0 29 1 45t8 34t20 28q4 4 28 23t27 22q28 33 28 117q0 70 -15 107.5t-59 37.5q-21 0 -35.5 -11.5t-14.5 -22.5q0 -4 5 -20l4 -17q3 -11 3 -22q0 -25 -14 -42t-38 -17q-23 0 -37 15.5t-14 42.5q0 43 36.5 78.5t109.5 35.5q83 0 130.5 -45.5t47.5 -126.5
q0 -42 -11.5 -72.5t-34 -48.5t-40.5 -27t-44 -18q-45 -15 -58 -31.5t-14 -64.5zM194 55q0 -26 -19 -45t-45 -19t-45 19t-19 45t19 45t45 19t45 -19t19 -45z" />
    <glyph glyph-name="at" unicode="@" horiz-adv-x="885" 
d="M549 385l119 5l-90 -307q-14 -56 -14 -77q0 -14 11 -26t27 -12q27 0 62 21.5t69 58.5t57.5 97t23.5 127q0 127 -83 217.5t-230 90.5q-81 0 -151.5 -25.5t-121 -69t-87 -100.5t-54.5 -122.5t-18 -133.5q0 -174 109.5 -279.5t272.5 -105.5q75 0 148.5 24.5t145 88
t106.5 157.5h30q-32 -82 -84 -143q-131 -154 -347 -154q-185 0 -308.5 119.5t-123.5 309.5q0 128 57.5 233t166.5 168t248 63q89 0 158 -28.5t110 -76t62 -104.5t21 -120q0 -88 -34 -166.5t-102.5 -130t-156.5 -51.5q-28 0 -48 8.5t-29.5 19t-15 25t-6 20.5t-0.5 11
q0 40 12 68l-2 2q-18 -31 -31.5 -52t-36 -47.5t-47.5 -40.5t-52 -14q-30 0 -49.5 19.5t-26 42t-6.5 46.5q0 71 27 140.5t66.5 116.5t83 76t76.5 29q59 0 68 -76h2zM474 368q-3 0 -9 -2t-15.5 -8.5t-16.5 -16.5q-40 -58 -68.5 -140.5t-28.5 -133.5q0 -18 8.5 -31.5
t20.5 -13.5q22 0 56.5 42.5t61.5 111t27 129.5q0 26 -9.5 44.5t-26.5 18.5z" />
    <glyph glyph-name="A" unicode="A" horiz-adv-x="573" 
d="M272 608h27l200 -588h61v-20h-256v20h74l-65 190h-152l-65 -190h72v-20h-155v20h62zM304 234l-67 201h-2l-67 -201h136z" />
    <glyph glyph-name="B" unicode="B" horiz-adv-x="583" 
d="M26 592h332q58 0 104 -35t46 -98q0 -33 -13 -57.5t-36 -39t-39.5 -21t-38.5 -12.5v-2q165 -32 165 -161q0 -48 -18.5 -82t-49.5 -51.5t-63.5 -25t-69.5 -7.5h-318v20h78v552h-79v20zM294 572h-73v-237h74q22 0 36 3t29.5 13t23.5 34.5t8 62.5q0 124 -98 124zM318 315h-97
v-295h68q74 0 103 31t29 116q0 82 -26 115t-77 33z" />
    <glyph glyph-name="C" unicode="C" horiz-adv-x="604" 
d="M562 556v-147h-18q-22 76 -53 114q-56 67 -135 67q-77 0 -126 -51q-67 -71 -67 -241q0 -18 0.5 -32.5t4 -46t10 -56t20 -54.5t32 -50t48 -33.5t66.5 -13.5q28 0 56 9t58.5 30t54 62.5t33.5 99.5h19v-168q-98 -54 -211 -54q-80 0 -143 26.5t-101 71.5t-57.5 100t-19.5 115
q0 75 28 135t75 96.5t103.5 55.5t117.5 19q117 0 205 -54z" />
    <glyph glyph-name="D" unicode="D" horiz-adv-x="677" 
d="M23 592h330q136 0 206 -69q85 -83 85 -226q0 -89 -25.5 -150.5t-71.5 -92t-95.5 -42.5t-112.5 -12h-316v20h80v552h-80v20zM309 572h-90v-552h107q99 0 143.5 68.5t44.5 204.5q0 165 -68 233q-46 46 -137 46z" />
    <glyph glyph-name="E" unicode="E" horiz-adv-x="594" 
d="M38 593h498v-164h-19q-17 81 -60 112.5t-92 31.5h-134v-262h39q40 0 65.5 12.5t35 34.5t12 35.5t2.5 31.5h21v-242h-20q-3 58 -33.5 83t-73.5 25h-48v-270h117q54 0 92 15.5t59 45t30 52t17 55.5h20v-189h-529v20h78v553h-77v20z" />
    <glyph glyph-name="F" unicode="F" horiz-adv-x="521" 
d="M30 592h465v-166h-19q-6 28 -12.5 45t-23.5 44.5t-50 42t-80 14.5h-87v-261h40q90 0 100 112h21v-248h-20q-7 116 -103 116h-38v-271h93v-20h-284v20h75v552h-77v20z" />
    <glyph glyph-name="G" unicode="G" horiz-adv-x="656" 
d="M558 557v-152h-20q-57 185 -198 185q-71 0 -119 -46q-31 -29 -45.5 -85t-14.5 -163q0 -95 13 -149.5t44 -86.5q48 -49 119 -49q48 0 88 25.5t40 74.5v167h-79v20h261v-20h-66v-206q-97 -81 -244 -81t-228 88t-81 222q0 146 87.5 227.5t217.5 81.5q129 0 225 -53z" />
    <glyph glyph-name="H" unicode="H" horiz-adv-x="698" 
d="M28 592h276v-20h-80v-255h250v255h-80v20h276v-20h-80v-552h80v-20h-276v20h80v273h-250v-273h80v-20h-276v20h80v552h-80v20z" />
    <glyph glyph-name="I" unicode="I" horiz-adv-x="344" 
d="M34 592h276v-20h-80v-552h80v-20h-276v20h80v552h-80v20z" />
    <glyph glyph-name="J" unicode="J" horiz-adv-x="427" 
d="M114 592h286v-20h-80v-434q0 -18 -1 -30.5t-9 -37t-23 -39.5t-47 -27.5t-76 -12.5q-69 0 -107 27.5t-38 70.5q0 27 16 45.5t44 18.5q23 0 39.5 -14.5t16.5 -41.5q0 -21 -8.5 -32.5t-32.5 -29.5q11 -24 49 -24q61 0 61 79v482h-90v20z" />
    <glyph glyph-name="K" unicode="K" horiz-adv-x="708" 
d="M52 592h273v-20h-83v-257h31l219 257h-79v20h198v-20h-87l-166 -193l273 -359h62v-20h-287v20h77l-209 275h-32v-275h83v-20h-273v20h74v552h-74v20z" />
    <glyph glyph-name="L" unicode="L" horiz-adv-x="573" 
d="M22 592h288v-20h-91v-552h128q39 0 69.5 15.5t48 34.5t31.5 50t18 47.5t10 41.5h20v-209h-521v20h80v552h-81v20z" />
    <glyph glyph-name="M" unicode="M" horiz-adv-x="792" 
d="M561 592h204v-20h-80v-552h80v-20h-267v20h71v533h-2l-206 -553h-26l-207 550h-2v-530h76v-20h-169v20h73v552h-73v20h202l162 -429z" />
    <glyph glyph-name="N" unicode="N" horiz-adv-x="677" 
d="M23 592h214l312 -413h2v393h-91v20h201v-20h-90v-581h-25l-418 552h-2v-523h92v-20h-195v20h83v552h-83v20z" />
    <glyph glyph-name="O" unicode="O" horiz-adv-x="667" 
d="M340 -9q-80 0 -141.5 27.5t-96.5 73t-52 98t-17 108.5q0 143 85 227.5t214 84.5q136 0 219 -88t83 -222q0 -145 -88 -227t-206 -82zM326 11q99 0 138.5 70t39.5 221q0 154 -41 221t-130 67q-52 0 -87 -20.5t-52.5 -62t-24 -89t-6.5 -116.5q0 -46 2.5 -81t12 -77t26.5 -69
t48 -45.5t74 -18.5z" />
    <glyph glyph-name="P" unicode="P" horiz-adv-x="573" 
d="M21 592h336q76 0 130 -39t54 -119q0 -68 -46 -112q-50 -47 -156 -47h-119v-255h89v-20h-288v20h83v552h-83v20zM300 572h-80v-277h66q65 0 97.5 29.5t32.5 109.5q0 138 -116 138z" />
    <glyph glyph-name="Q" unicode="Q" horiz-adv-x="667" 
d="M557 -251v-19h-77q-49 0 -81.5 10t-50 33t-24 40t-14.5 51q-13 54 -31 86t-31.5 42.5t-41.5 23.5q-64 31 -105 81q-68 85 -68 202q0 133 81 222t221 89q133 0 216 -87t83 -221q0 -76 -27 -137.5t-71 -98t-94.5 -56t-102.5 -19.5q-23 0 -55 4l-2 -2q6 -4 53 -31t55 -33
q25 -16 47 -83q19 -57 42 -77.5t78 -19.5zM326 11q99 0 138.5 70t39.5 221q0 154 -41 221t-130 67q-52 0 -87 -20.5t-52.5 -62t-24 -89t-6.5 -116.5q0 -46 2.5 -81t12 -77t26.5 -69t48 -45.5t74 -18.5z" />
    <glyph glyph-name="R" unicode="R" horiz-adv-x="625" 
d="M22 592h305q79 0 132.5 -34t53.5 -102q0 -111 -153 -138v-2q86 -18 117.5 -52.5t37.5 -130.5q4 -69 23.5 -92t70.5 -26v-20h-98q-31 0 -54 11t-34 25.5t-18 39t-8 39t-2 38.5q-3 104 -45 135q-30 21 -73 21h-57v-284h79v-20h-277v20h82v552h-82v20zM261 572h-41v-248h54
q114 0 114 129q0 40 -10.5 66t-31.5 36.5t-39 13.5t-46 3z" />
    <glyph glyph-name="S" unicode="S" 
d="M406 568v-156h-20q-15 96 -57 136.5t-92 40.5q-48 0 -80 -28t-32 -62q0 -38 31.5 -62.5t99.5 -54.5q100 -43 138.5 -83.5t38.5 -116.5q0 -80 -51.5 -135.5t-160.5 -55.5q-97 0 -183 35l-3 183h19q32 -198 174 -198q59 0 97.5 34.5t38.5 79.5q0 48 -35.5 76t-103.5 57
q-90 38 -132.5 77.5t-42.5 109.5q0 71 49.5 118t135.5 47q75 0 171 -42z" />
    <glyph glyph-name="T" unicode="T" horiz-adv-x="625" 
d="M36 592h552v-192h-20l-4.5 27t-6.5 30t-11 33.5t-17.5 30t-25 27t-34 17t-45.5 7.5h-54v-552h82v-20h-280v20h82v552h-48q-36 0 -63 -13.5t-41.5 -30t-25.5 -44.5t-13.5 -43.5t-6.5 -40.5h-20v192z" />
    <glyph glyph-name="U" unicode="U" horiz-adv-x="677" 
d="M21 592h278v-20h-82v-390q0 -171 158 -171q77 0 128 38.5t51 122.5v400h-83v20h185v-20h-82v-399q0 -46 -14 -80t-35 -53t-52.5 -30.5t-60.5 -15t-66 -3.5q-51 0 -90.5 7t-65 17t-43.5 27.5t-27 31.5t-13.5 36.5t-5 35t-0.5 33.5v393h-80v20z" />
    <glyph glyph-name="V" unicode="V" horiz-adv-x="573" 
d="M14 592h257v-20h-72l136 -404h4l130 404h-71v20h161v-20h-66l-189 -581h-29l-198 581h-63v20z" />
    <glyph glyph-name="W" unicode="W" horiz-adv-x="938" 
d="M15 592h261v-20h-73l124 -397h4l122 387l-6 10h-73v20h268v-20h-72l126 -398h4l124 398h-72v20h170v-20h-75l-181 -581h-30l-172 534h-2l-166 -534h-28l-184 581h-69v20z" />
    <glyph glyph-name="X" unicode="X" horiz-adv-x="625" 
d="M382 592h175v-20h-75l-140 -213l194 -339h69v-20h-273v20h73l-131 232l-148 -232h73v-20h-174v20h72l163 255l-169 297h-71v20h278v-20h-77l108 -191l124 191h-71v20z" />
    <glyph glyph-name="Y" unicode="Y" horiz-adv-x="625" 
d="M17 592h283v-20h-81l148 -242l141 242h-78v20h178v-20h-74l-157 -271v-281h83v-20h-282v20h83v269l-173 283h-71v20z" />
    <glyph glyph-name="Z" unicode="Z" horiz-adv-x="573" 
d="M47 592h481v-8l-366 -564h197q121 0 162 172h20v-192h-517v22l360 550h-136q-142 0 -181 -149h-20v169z" />
    <glyph glyph-name="bracketleft" unicode="[" horiz-adv-x="365" 
d="M93 596h258v-20h-155v-768h155v-20h-258v808z" />
    <glyph glyph-name="backslash" unicode="\" horiz-adv-x="500" 
d="M95 596l364 -751h-53l-365 751h54z" />
    <glyph glyph-name="bracketright" unicode="]" horiz-adv-x="365" 
d="M272 596v-808h-258v20h155v768h-155v20h258z" />
    <glyph glyph-name="asciicircum" unicode="^" horiz-adv-x="552" 
d="M58 241l200 351h40l198 -351h-78l-144 250l-142 -250h-74z" />
    <glyph glyph-name="underscore" unicode="_" horiz-adv-x="500" 
d="M506 -125h-512v50h512v-50z" />
    <glyph glyph-name="grave" unicode="`" horiz-adv-x="333" 
d="M204 436q-11 11 -52 49t-58 55t-17 34q0 31 42 31q30 0 42 -18q2 -2 76 -151h-33z" />
    <glyph glyph-name="a" unicode="a" 
d="M389 256v-197q0 -42 28 -42q3 0 18.5 3t18.5 3v-18q-40 -14 -71 -14q-33 0 -54 9.5t-28 19.5t-14 28q-34 -57 -125 -57q-21 0 -41 3.5t-44 13.5t-38.5 31.5t-14.5 53.5q0 27 10.5 46.5t33.5 32.5t45.5 20.5t59.5 15.5q59 14 110 35q1 47 -2 64.5t-16 31.5q-21 18 -56 18
q-17 0 -28.5 -4.5t-16.5 -14.5t-6.5 -16t-3.5 -18q-3 -18 -5.5 -24t-17 -11.5t-44.5 -5.5q-23 0 -31 5.5t-8 23.5q0 85 169 85q96 0 134 -29.5t38 -91.5zM283 117v102q-4 -2 -51.5 -19.5t-56.5 -23.5q-33 -22 -33 -77q0 -42 17.5 -60t39.5 -18q28 0 56 27t28 69z" />
    <glyph glyph-name="b" unicode="b" horiz-adv-x="521" 
d="M16 596h169v-281h2q45 62 116 62q91 0 139 -57.5t48 -136.5q0 -87 -55 -139.5t-131 -52.5q-30 0 -55 9t-35 16.5t-29 24.5v-41h-106v576h-63v20zM185 245v-162q45 -67 99 -67q53 0 69.5 43.5t16.5 141.5q0 151 -86 151q-39 0 -69 -38.5t-30 -68.5z" />
    <glyph glyph-name="c" unicode="c" horiz-adv-x="448" 
d="M398 98h26q-36 -107 -171 -107q-103 0 -163 57t-60 137q0 74 54 133t163 59q87 0 129.5 -30t42.5 -69q0 -45 -48 -45q-19 0 -31 6.5t-17 18.5t-6 19.5t-2 20.5q0 7 -1.5 14.5t-7 19t-19.5 18.5t-36 7q-34 0 -56 -14t-31 -40.5t-11.5 -50.5t-2.5 -58q1 -100 28 -140
t90 -40q39 0 78 22.5t52 61.5z" />
    <glyph glyph-name="d" unicode="d" horiz-adv-x="521" 
d="M273 596h169v-576h56v-20h-162v55q-21 -24 -31.5 -34t-33 -20t-51.5 -10q-80 0 -135 58t-55 137q0 84 54.5 137.5t128.5 53.5q76 0 121 -65h2v264h-63v20zM336 97v145q0 28 -33 69t-77 41q-46 0 -61 -42t-15 -138q0 -161 81 -161q56 0 105 86z" />
    <glyph glyph-name="e" unicode="e" horiz-adv-x="458" 
d="M433 181h-285q1 -20 2 -30t4 -34.5t11 -38.5t20 -31t33 -25t48 -8q45 0 82.5 24.5t54.5 65.5h25q-8 -21 -16 -34t-27.5 -34.5t-54 -33t-82.5 -11.5q-101 0 -160.5 57.5t-59.5 136.5q0 29 11 60.5t33.5 62t64.5 50t97 19.5q83 0 139 -51.5t60 -144.5zM148 201h165
q0 21 -1 33t-5.5 38t-12.5 41.5t-24 28t-39 12.5q-28 0 -46.5 -16t-25.5 -45.5t-8.5 -46.5t-2.5 -45z" />
    <glyph glyph-name="f" unicode="f" horiz-adv-x="292" 
d="M83 367v86q0 157 163 157q22 0 42 -3t43.5 -11.5t37.5 -28t14 -47.5q0 -50 -50 -50q-26 0 -42 10t-15 37l1 35q1 19 -11.5 28.5t-25.5 9.5q-51 0 -51 -89v-134h85v-24h-84v-323h73v-20h-249v20h70v324h-72v23h71z" />
    <glyph glyph-name="g" unicode="g" horiz-adv-x="521" 
d="M124 130q-50 45 -50 102q0 67 49 106t123 39q83 0 135 -49q25 27 41 38t37 11q46 0 46 -45q0 -42 -37 -42q-20 0 -31 21q-7 15 -17 15q-13 0 -23 -17q23 -32 23 -75q0 -59 -42 -102.5t-126 -43.5q-41 0 -82 14q-21 7 -35 7q-22 0 -37 -14.5t-15 -29.5q0 -21 29.5 -28
t101.5 -8q44 -1 69.5 -2t60.5 -5t55.5 -12.5t40.5 -22.5t29 -36.5t9 -52.5q0 -142 -232 -142q-15 0 -30 0.5t-52.5 5.5t-64.5 14t-49 28.5t-22 46.5q0 23 15 40t30.5 24t40.5 15v2q-81 24 -81 96q0 30 10 50.5t29 31t27.5 13.5t24.5 7zM249 357q-36 0 -48.5 -31t-12.5 -97
q0 -121 61 -121q20 0 32.5 12t17.5 36t6 40.5t1 43.5q0 117 -57 117zM231 -75q-25 0 -40 -1.5t-39 -7.5t-36.5 -22t-12.5 -42q0 -76 151 -76q71 0 119.5 23t48.5 58q0 68 -191 68z" />
    <glyph glyph-name="h" unicode="h" horiz-adv-x="521" 
d="M25 596h161v-317h2q47 98 144 98q54 0 84 -30q18 -18 22.5 -41.5t4.5 -80.5v-205h55v-20h-209v20h48v207v32t-1.5 25.5t-4 23t-7.5 15.5t-13 11t-19 3q-41 0 -73.5 -50.5t-32.5 -70.5v-196h47v-20h-210v20h57v556h-55v20z" />
    <glyph glyph-name="i" unicode="i" horiz-adv-x="281" 
d="M35 367h161v-347h52v-20h-213v20h55v327h-55v20zM143 485q-29 0 -46.5 19t-17.5 43q0 26 18 44.5t44 18.5t44.5 -18.5t18.5 -44.5q0 -27 -19 -44.5t-42 -17.5z" />
    <glyph glyph-name="j" unicode="j" horiz-adv-x="250" 
d="M14 367h169v-436q0 -54 -11.5 -80t-44.5 -45q-27 -16 -74 -31.5t-78 -18.5l-1 20q30 10 41.5 14t27 13.5t19.5 16.5t9 24t5.5 34.5t0.5 50.5v418h-63v20zM121 485q-29 0 -46.5 19t-17.5 43q0 26 18 44.5t44 18.5t44.5 -18.5t18.5 -44.5q0 -27 -19 -44.5t-42 -17.5z" />
    <glyph glyph-name="k" unicode="k" horiz-adv-x="510" 
d="M18 596h170v-399q36 1 62 25q29 27 60 65t31 45q0 15 -41 15h-23v20h170v-20q-37 0 -48 -3.5t-24 -15.5q-5 -5 -39 -48t-39 -49l155 -211h46v-20h-218v20h45l-117 157h-20v-157h57v-20h-227v20h63v556h-63v20z" />
    <glyph glyph-name="l" unicode="l" horiz-adv-x="281" 
d="M31 596h166v-576h55v-20h-219v20h58v556h-60v20z" />
    <glyph glyph-name="m" unicode="m" horiz-adv-x="781" 
d="M703 261v-241h57v-20h-220v20h57v249q0 32 -16.5 48.5t-35.5 16.5q-40 0 -70.5 -50.5t-30.5 -79.5v-184h57v-20h-220v20h57v235q0 79 -53 79q-44 0 -72 -51t-28 -76v-187h57v-20h-223v20h60v327h-60v20h166v-86h2q17 46 55.5 69t80.5 23q38 0 62.5 -9t35.5 -27t14.5 -30
t5.5 -32h2q15 40 52.5 69t89.5 29q54 0 86 -27.5t32 -84.5z" />
    <glyph glyph-name="n" unicode="n" horiz-adv-x="521" 
d="M442 251v-231h57v-20h-212v20h49v245q0 68 -49 68q-32 0 -57 -30t-35 -56t-10 -33v-194h48v-20h-218v20h64v327h-63v20h170v-89h2q4 12 12 25t24 30.5t43 28.5t60 11q115 0 115 -122z" />
    <glyph glyph-name="o" unicode="o" 
d="M241 -9q-100 0 -156.5 56.5t-56.5 137.5q0 87 59.5 139.5t145.5 52.5q85 0 146.5 -53t61.5 -141q0 -41 -13.5 -74.5t-35 -54.5t-48.5 -36t-53 -21t-50 -6zM235 11q21 0 36 6.5t24.5 22t15 29t7.5 40t2.5 42.5t0.5 48q0 158 -88 158q-28 0 -46 -14t-26 -42t-10.5 -54.5
t-2.5 -64.5q0 -35 2 -58.5t10 -53t27 -44.5t48 -15z" />
    <glyph glyph-name="p" unicode="p" horiz-adv-x="521" 
d="M187 51v-266h66v-20h-231v20h59v562h-64v20h172v-51h2q39 58 114 58q80 0 132.5 -56.5t52.5 -135.5q0 -83 -55.5 -137t-131.5 -54q-35 0 -66 18t-48 42h-2zM187 234v-141q27 -41 55.5 -58.5t48.5 -17.5q26 0 42 12t24 38.5t10.5 57t2.5 79.5q0 71 -17 109t-62 38
q-41 0 -72.5 -39t-31.5 -78z" />
    <glyph glyph-name="q" unicode="q" horiz-adv-x="510" 
d="M335 53h-3q-27 -31 -53 -46.5t-61 -15.5q-79 0 -133 54t-54 137t54.5 137.5t134.5 54.5q67 0 112 -67h3v60h106v-582h61v-20h-230v20h63v268zM335 234q0 43 -34 80t-67 37q-45 0 -64 -36t-19 -108q0 -49 2.5 -80t10.5 -58t24 -39.5t42 -12.5q36 0 60 22.5t45 65.5v129z
" />
    <glyph glyph-name="r" unicode="r" horiz-adv-x="406" 
d="M189 173v-153h76v-20h-253v20h71v327h-71v20h177v-73h2q32 80 110 80q43 0 67 -20.5t24 -56.5q0 -56 -52 -56q-54 0 -54 55q0 3 3 18.5t3 17.5q0 11 -12 11q-37 0 -64 -49.5t-27 -120.5z" />
    <glyph glyph-name="s" unicode="s" horiz-adv-x="365" 
d="M291 345v-79h-21q-28 91 -99 91q-29 0 -49.5 -13.5t-20.5 -31.5q0 -21 23.5 -36t64.5 -30q77 -28 108.5 -58.5t31.5 -79.5q0 -62 -43.5 -89.5t-104.5 -27.5q-74 0 -145 45v99h20q42 -124 130 -124q29 0 52.5 15t23.5 38q0 22 -22.5 38.5t-72.5 34.5q-66 24 -95 51.5
t-29 76.5q0 61 38.5 86.5t90.5 25.5q64 0 119 -32z" />
    <glyph glyph-name="t" unicode="t" horiz-adv-x="302" 
d="M76 481h106v-114h89v-24h-89v-249q0 -73 43 -73q18 0 42 19q8 6 24 22v-33q-14 -14 -22.5 -20.5t-28.5 -12t-49 -5.5q-62 0 -88.5 30t-26.5 93v229h-62v24h62v114z" />
    <glyph glyph-name="u" unicode="u" horiz-adv-x="510" 
d="M14 367h166v-269q0 -70 41 -70t75.5 49t34.5 68v202h-57v20h163v-347h59v-20h-165v82h-2q-31 -51 -63.5 -69.5t-76.5 -18.5q-32 0 -55 8.5t-34 20t-17.5 29.5t-7.5 30t-1 30v235h-60v20z" />
    <glyph glyph-name="v" unicode="v" 
d="M15 367h226v-20h-53l95 -213l82 213h-66v20h154v-20h-62l-136 -356h-24l-159 356h-57v20z" />
    <glyph glyph-name="w" unicode="w" horiz-adv-x="729" 
d="M15 367h215v-20h-55l87 -213l81 213h-52v20h230v-20h-59l91 -214l82 214h-55v20h134v-20h-53l-137 -356h-26l-139 334l-127 -334h-25l-145 356h-47v20z" />
    <glyph glyph-name="x" unicode="x" 
d="M16 367h219v-20h-49l68 -98l83 98h-53v20h145v-20h-59l-103 -119l139 -208h50v-20h-227v20h48l-80 121l-100 -121h45v-20h-129v20h52l117 142l-124 185h-42v20z" />
    <glyph glyph-name="y" unicode="y" 
d="M10 367h241v-20h-62l109 -228l83 228h-76v20h154v-20h-52l-162 -448q-11 -32 -17.5 -48t-18 -38t-22.5 -32t-28 -17.5t-38 -7.5q-35 0 -61 20.5t-26 58.5q0 21 13 36t35 15q48 0 50 -50q0 -12 -3 -23t-6.5 -17t-3.5 -7q0 -7 14 -7q32 0 61 55q9 18 54 141l-176 369h-62
v20z" />
    <glyph glyph-name="z" unicode="z" horiz-adv-x="427" 
d="M45 367h356v-9l-238 -338h75q37 0 63.5 12.5t41 36.5t20.5 39t13 41h21v-149h-370v13l234 334h-65q-35 0 -61 -11.5t-41 -34t-20.5 -35.5t-12.5 -36h-20z" />
    <glyph glyph-name="braceleft" unicode="{" horiz-adv-x="375" 
d="M338 635v-22q-48 -10 -73 -34.5t-25 -59.5q0 -42 13 -81q12 -45 12 -86q0 -54 -45 -103q-24 -25 -50 -37t-68 -22v-2q82 -24 122 -64q41 -43 41 -100q0 -38 -10 -78q-15 -54 -15 -85q0 -22 9 -40t17.5 -27t27 -17t23.5 -9t21 -5v-23q-53 -1 -94.5 15t-64.5 41t-34.5 52
t-11.5 52q0 32 16 91q10 40 10 78q0 86 -97 104v30q33 6 55 20.5t30 34t10 30.5t2 23q0 35 -10 75q-16 69 -16 88q0 8 1.5 19.5t13 37.5t31 46.5t61.5 38t98 19.5z" />
    <glyph glyph-name="bar" unicode="|" horiz-adv-x="500" 
d="M223 596h54v-831h-54v831z" />
    <glyph glyph-name="braceright" unicode="}" horiz-adv-x="375" 
d="M37 635q56 -2 98 -19.5t61.5 -38t31 -46.5t13 -37.5t1.5 -19.5q0 -19 -16 -88q-10 -46 -10 -75q0 -12 2 -23t10 -30.5t30 -34t55 -20.5v-30q-97 -18 -97 -104q0 -42 10 -78q16 -59 16 -91q0 -25 -11.5 -52t-34.5 -52t-64.5 -41t-94.5 -15v23q59 14 80 41q18 23 18 57
q0 25 -15 85q-10 40 -10 78q0 59 41 100q40 40 122 64v2q-44 10 -69.5 22t-48.5 37q-45 49 -45 103q0 41 12 86q13 39 13 81q0 35 -25 59.5t-73 34.5v22z" />
    <glyph glyph-name="asciitilde" unicode="~" horiz-adv-x="667" 
d="M567 357h30q-1 -71 -35.5 -107.5t-86.5 -36.5q-26 0 -53 8.5t-105 40.5q-103 42 -131 42q-29 0 -49 -17t-27 -34t-10 -35h-30q2 40 14 69t25.5 43t32 22t28.5 9t19 1q50 0 187 -58q77 -33 105 -33q31 0 57.5 21.5t28.5 64.5z" />
    <glyph glyph-name="uni00A0" unicode="&#xa0;" horiz-adv-x="240" 
 />
    <glyph glyph-name="exclamdown" unicode="&#xa1;" horiz-adv-x="219" 
d="M121 194l44 -334q0 -1 2 -21.5t2 -31.5q0 -49 -59 -49q-33 0 -46 14t-13 43q0 15 3 42l47 337h20zM45 313q0 26 19 45t45 19t45 -19t19 -45t-19 -45t-45 -19t-45 19t-19 45z" />
    <glyph glyph-name="cent" unicode="&#xa2;" horiz-adv-x="448" 
d="M372 610h37l-96 -238q106 -26 106 -93q0 -46 -48 -46q-27 0 -42 15t-15 43q0 37 -14 50l-118 -293q30 -34 84 -34q10 0 22.5 2t35 9t42.5 26.5t32 47.5h23q-34 -108 -171 -108q-47 0 -86 15l-86 -214h-36l91 226q-37 18 -61.5 50t-33 60.5t-8.5 54.5q0 39 14.5 74t43 64
t77.5 44.5t113 11.5zM162 88l107 266q-11 3 -23 3q-27 0 -46 -10.5t-28.5 -24.5t-14.5 -42t-6 -48.5t-1 -57.5q0 -51 10 -86h2z" />
    <glyph glyph-name="sterling" unicode="&#xa3;" horiz-adv-x="479" 
d="M214 281h177v-51h-170q3 -39 3 -51q0 -16 -2 -44q1 0 88 -29q38 -13 56 -13q31 0 51 18.5t25 50.5h22q-2 -24 -3.5 -38.5t-10 -43t-21 -45t-38 -30.5t-59.5 -14q-37 0 -64 12.5t-75 45.5q-38 -58 -97 -58q-41 0 -61 21.5t-20 52.5q0 51 40.5 70.5t103.5 15.5
q-11 44 -31 80h-99v50h78q-28 65 -28 119q0 88 56 138.5t141 50.5q69 0 117 -32.5t48 -86.5q0 -29 -15 -43t-36 -14q-49 0 -49 53q0 16 9 38q6 21 6 23q0 17 -23 29t-45 12q-40 0 -69 -32.5t-29 -88.5q0 -28 24 -166zM157 76q-41 31 -69 31q-18 0 -34.5 -14.5t-16.5 -31.5
t16 -32.5t37 -15.5q24 0 41.5 18t25.5 45z" />
    <glyph glyph-name="currency" unicode="&#xa4;" horiz-adv-x="467" 
d="M452 175l-35 -37l-67 66q-60 -40 -118 -40q-59 0 -117 40l-67 -66l-35 37l66 63q-38 62 -38 116q0 56 38 116l-66 64l35 37l67 -66q61 40 117 40q59 0 117 -40l68 66l35 -37l-66 -64q40 -63 40 -116q0 -51 -40 -116zM374 355q0 60 -43 100t-98 40q-59 0 -100 -41.5
t-41 -98.5q0 -58 41.5 -99.5t98.5 -41.5q58 0 100 41.5t42 99.5z" />
    <glyph glyph-name="yen" unicode="&#xa5;" horiz-adv-x="625" 
d="M17 592h283v-20h-81l148 -242l141 242h-78v20h178v-20h-74l-157 -271v-12h194v-24h-194v-84h194v-24h-194v-137h83v-20h-282v20h83v137h-200v24h200v84h-200v24h200l-173 283h-71v20z" />
    <glyph glyph-name="brokenbar" unicode="&#xa6;" horiz-adv-x="500" 
d="M223 131h54v-366h-54v366zM223 596h54v-366h-54v366z" />
    <glyph glyph-name="section" unicode="&#xa7;" 
d="M70 -94q-9 -7 -9 -17q0 -33 37.5 -65t100.5 -32q47 0 82.5 24.5t35.5 63.5q0 32 -24.5 62t-110.5 110q-79 73 -119.5 137.5t-40.5 152.5q0 106 62 187t176 81q86 0 126.5 -38.5t40.5 -90.5q0 -39 -23.5 -66t-62.5 -27q-28 0 -45 15t-17 45q0 58 54 58q16 0 23 -3.5
t28 -22.5q6 -6 13 -7q8 5 8 15q0 36 -40 69t-101 33q-48 0 -82 -24t-34 -59q0 -36 28 -70t111 -111q90 -83 125 -147.5t35 -140.5q0 -120 -78 -198q-41 -41 -79.5 -54.5t-85.5 -13.5q-81 0 -123 34t-42 90q0 41 22.5 69.5t63.5 28.5q60 0 60 -59q0 -61 -54 -61q-24 0 -39 13
q-1 1 -10.5 9.5t-11.5 9.5zM133 542l-2 2q-18 -21 -26.5 -32t-23.5 -48.5t-15 -76.5q0 -51 26.5 -101t93.5 -116q44 -43 66 -66.5t49 -58.5t38 -67.5t11 -68.5q0 -24 -15 -64l2 -2q63 65 63 148q0 54 -28.5 106.5t-103.5 124.5q-48 47 -75.5 77.5t-52 76.5t-24.5 89
q0 37 17 77z" />
    <glyph glyph-name="dieresis" unicode="&#xa8;" horiz-adv-x="333" 
d="M260 545q23 0 39 -16t16 -38q0 -23 -16.5 -39t-38.5 -16t-38 16t-16 39t16 38.5t38 15.5zM72 545q23 0 39 -16t16 -38q0 -23 -16.5 -39t-38.5 -16t-38 16t-16 39t16 38.5t38 15.5z" />
    <glyph glyph-name="copyright" unicode="&#xa9;" horiz-adv-x="708" 
d="M518 473v-129h-19q-8 43 -34 68.5t-46 31t-40 5.5q-38 0 -65 -18t-39 -47.5t-17 -56.5t-5 -55q0 -96 32 -137q36 -46 92 -46q73 0 127 68v-35q-59 -62 -155 -62q-84 0 -145 52t-61 147q0 96 62.5 155.5t152.5 59.5q39 0 96 -20q16 -6 23 -6q18 0 22 25h19zM354 610
q143 0 245 -101t102 -245q0 -143 -102 -244.5t-245 -101.5t-244.5 101.5t-101.5 244.5q0 144 102 245t244 101zM354 566q-125 0 -213.5 -88.5t-88.5 -213.5t88.5 -213.5t213.5 -88.5t214 88.5t89 213.5t-89 213.5t-214 88.5z" />
    <glyph glyph-name="ordfeminine" unicode="&#xaa;" horiz-adv-x="323" 
d="M197 518v28q0 50 -47 50q-18 0 -26.5 -5.5t-10.5 -12t-4 -22.5q-1 -15 -11 -19.5t-35 -4.5q-15 0 -20.5 3.5t-5.5 16.5q0 58 116 58q67 0 92 -21t25 -63v-137q0 -23 17 -23q11 0 27 4v-13q-22 -9 -49 -9q-51 0 -66 36q-28 -36 -85 -36q-36 0 -65 16t-29 52t25 51.5
t78 28.5q45 11 74 22zM197 434v69q-4 -2 -37.5 -14.5t-39.5 -17.5q-19 -15 -19 -49q0 -54 39 -54q22 0 39.5 18.5t17.5 47.5z" />
    <glyph glyph-name="guillemotleft" unicode="&#xab;" horiz-adv-x="479" 
d="M441 377l16 -14l-93 -172l93 -173l-17 -14l-188 175v23zM231 377l16 -14l-93 -172l93 -173l-17 -14l-188 175v23z" />
    <glyph glyph-name="logicalnot" unicode="&#xac;" horiz-adv-x="667" 
d="M70 429h527v-281h-53v228h-474v53z" />
    <glyph glyph-name="uni00AD" unicode="&#xad;" horiz-adv-x="313" 
d="M30 224h254v-79h-254v79z" />
    <glyph glyph-name="registered" unicode="&#xae;" horiz-adv-x="708" 
d="M169 465h176q93 0 129 -24q45 -30 45 -83q0 -77 -87 -101l66 -122q23 -42 51 -48v-17h-117l-100 180h-23v-97q0 -40 10.5 -52.5t48.5 -13.5v-17h-207v17q28 -1 39.5 10.5t11.5 55.5v231q0 38 -8 50t-35 14v17zM309 444v-169q10 -2 27 -2q29 0 53.5 21.5t24.5 65.5
q0 84 -87 84h-18zM354 610q143 0 245 -101t102 -245q0 -143 -102 -244.5t-245 -101.5t-244.5 101.5t-101.5 244.5q0 144 102 245t244 101zM354 566q-125 0 -213.5 -88.5t-88.5 -213.5t88.5 -213.5t213.5 -88.5t214 88.5t89 213.5t-89 213.5t-214 88.5z" />
    <glyph glyph-name="macron" unicode="&#xaf;" horiz-adv-x="333" 
d="M303 518v-46h-272v46h272z" />
    <glyph glyph-name="degree" unicode="&#xb0;" horiz-adv-x="375" 
d="M188 610q70 0 120.5 -50.5t50.5 -120.5t-50.5 -120.5t-120.5 -50.5t-120.5 50.5t-50.5 120.5t50.5 120.5t120.5 50.5zM188 540q-43 0 -72 -28.5t-29 -72.5q0 -43 28.5 -72t72.5 -29q43 0 72 29t29 72q0 44 -28.5 72.5t-72.5 28.5z" />
    <glyph glyph-name="plusminus" unicode="&#xb1;" horiz-adv-x="667" 
d="M70 53h527v-53h-527v53zM70 428h237v237h53v-237h237v-53h-237v-237h-53v237h-237v53z" />
    <glyph glyph-name="two.superior" unicode="&#xb2;" horiz-adv-x="302" 
d="M117 339h109q11 0 15.5 5.5t13.5 25.5h25l-40 -95h-228q6 6 32 30t49 45.5t30 28.5q63 63 63 115q0 23 -16 41.5t-40 18.5q-23 0 -40.5 -17.5t-17.5 -38.5q0 -24 36 -60l-18 -20q-22 18 -33 35.5t-11 44.5q0 41 28 65.5t83 24.5q25 0 47.5 -4.5t45.5 -25.5t23 -56
q0 -50 -51 -89q-60 -45 -105 -72v-2z" />
    <glyph glyph-name="three.superior" unicode="&#xb3;" horiz-adv-x="302" 
d="M71 588h202l-109 -118q28 -1 49 -11t30.5 -21.5t15 -28t6 -24t0.5 -15.5q0 -38 -23.5 -62t-50 -31t-54.5 -7q-38 0 -62 9t-34 26t-13 27.5t-4 27.5h26q4 -28 20.5 -43.5t26 -17.5t18.5 -2q30 0 45.5 24t15.5 55t-13.5 52t-32.5 21q-12 0 -37 -12l-8 19l64 70h-65
q-14 0 -25 -16h-26z" />
    <glyph glyph-name="acute" unicode="&#xb4;" horiz-adv-x="333" 
d="M129 436h-33q74 149 76 151q12 18 42 18q42 0 42 -31q0 -17 -17 -34t-58 -55t-52 -49z" />
    <glyph glyph-name="mu" unicode="&#xb5;" horiz-adv-x="458" 
d="M48 367h104v-220q0 -46 8 -70t15 -27.5t18 -3.5q44 0 78 48v273h105v-241q0 -46 4.5 -63t19.5 -17q22 0 27 56h24q-3 -37 -11.5 -61t-23 -34t-27.5 -13t-34 -3q-40 0 -56 20t-19 54h-2q-8 -23 -43 -48.5t-84 -25.5q-31 0 -50 28h-2q0 -50 4 -76q11 -77 11 -78
q0 -19 -11.5 -35t-34.5 -16q-24 0 -37 15.5t-13 33.5q0 8 2 17t7.5 29.5t10.5 39.5q10 44 10 142v276z" />
    <glyph glyph-name="paragraph" unicode="&#xb6;" horiz-adv-x="438" 
d="M368 572v-807h-36v799h-79v-799h-36v472q-90 3 -141 32q-33 19 -53.5 59.5t-20.5 86.5q0 45 20 87t59 62q54 28 157 28h198v-20h-68z" />
    <glyph glyph-name="periodcentered" unicode="&#xb7;" horiz-adv-x="208" 
d="M168 291q0 -26 -19 -45t-45 -19t-45 19t-19 45t19 45t45 19t45 -19t19 -45z" />
    <glyph glyph-name="cedilla" unicode="&#xb8;" horiz-adv-x="333" 
d="M64 -161v11h21q6 -20 22 -30t31 -10q17 0 32 16.5t15 46.5q0 26 -12 45.5t-31 19.5q-7 0 -15.5 -2.5t-20.5 -14.5t-17 -31h-20l3 45q32 22 75 22q52 0 76 -25.5t24 -61.5q0 -40 -26.5 -61t-68.5 -21q-31 0 -51 10t-25.5 18.5t-11.5 22.5z" />
    <glyph glyph-name="one.superior" unicode="&#xb9;" horiz-adv-x="302" 
d="M150 588h37v-293h71v-20h-226v20h72v220q-22 -17 -59 -35l-11 21q77 40 116 87z" />
    <glyph glyph-name="ordmasculine" unicode="&#xba;" horiz-adv-x="323" 
d="M156 610q68 0 107 -37.5t39 -93.5q0 -59 -40.5 -95t-100.5 -36q-61 0 -101 37.5t-40 94.5q0 59 41 94.5t95 35.5zM160 362q37 0 48 30.5t11 99.5q0 104 -62 104q-19 0 -30.5 -10t-16.5 -31t-6 -37.5t-1 -45.5q0 -53 12 -81.5t45 -28.5z" />
    <glyph glyph-name="guillemotright" unicode="&#xbb;" horiz-adv-x="479" 
d="M38 377l189 -175v-23l-188 -175l-17 14l93 173l-93 172zM248 377l189 -175v-23l-188 -175l-17 14l93 173l-93 172z" />
    <glyph glyph-name="onequarter" unicode="&#xbc;" horiz-adv-x="760" 
d="M589 295h41v-201q22 0 30.5 6t9.5 25h20v-85h-20q-1 17 -10 23.5t-31 7.5v-95h-81v96h-134v18zM547 95v116l-98 -116h98zM197 588h37v-293h71v-20h-226v20h72v220q-22 -17 -59 -35l-11 21q77 40 116 87zM591 588h43l-427 -612h-43z" />
    <glyph glyph-name="onehalf" unicode="&#xbd;" horiz-adv-x="760" 
d="M534 40h109q11 0 15.5 5.5t13.5 25.5h25l-40 -95h-228q6 6 32 30t49 45.5t30 28.5q63 63 63 115q0 23 -16 41.5t-40 18.5q-23 0 -40.5 -17.5t-17.5 -38.5q0 -24 36 -60l-18 -20q-22 18 -33 35.5t-11 44.5q0 41 28 65.5t83 24.5q25 0 47.5 -4.5t45.5 -25.5t23 -56
q0 -50 -51 -89q-60 -45 -105 -72v-2zM591 588h43l-427 -612h-43zM197 588h37v-293h71v-20h-226v20h72v220q-22 -17 -59 -35l-11 21q77 40 116 87z" />
    <glyph glyph-name="threequarters" unicode="&#xbe;" horiz-adv-x="760" 
d="M589 295h41v-201q22 0 30.5 6t9.5 25h20v-85h-20q-1 17 -10 23.5t-31 7.5v-95h-81v96h-134v18zM547 95v116l-98 -116h98zM118 588h202l-109 -118q28 -1 49 -11t30.5 -21.5t15 -28t6 -24t0.5 -15.5q0 -38 -23.5 -62t-50 -31t-54.5 -7q-38 0 -62 9t-34 26t-13 27.5t-4 27.5
h26q4 -28 20.5 -43.5t26 -17.5t18.5 -2q30 0 45.5 24t15.5 55t-13.5 52t-32.5 21q-11 0 -37 -12l-8 19l64 70h-65q-14 0 -25 -16h-26zM591 588h43l-427 -612h-43z" />
    <glyph glyph-name="questiondown" unicode="&#xbf;" horiz-adv-x="365" 
d="M231 192h19q0 -29 -1 -45t-8 -34t-20 -28q-4 -4 -28 -23t-27 -22q-28 -33 -28 -117q0 -70 15 -107.5t59 -37.5q21 0 35.5 11.5t14.5 22.5q0 4 -4 20l-5 17q-3 11 -3 22q0 25 14 42t38 17q23 0 37 -15.5t14 -42.5q0 -43 -36.5 -78.5t-109.5 -35.5q-83 0 -130.5 45.5
t-47.5 126.5q0 42 11.5 72.5t34 48.5t40.5 27t44 18q45 15 58 31.5t14 64.5zM299 313q0 -26 -19 -45t-45 -19t-45 19t-19 45t19 45t45 19t45 -19t19 -45z" />
    <glyph glyph-name="Agrave" unicode="&#xc0;" horiz-adv-x="573" 
d="M272 608h27l200 -588h61v-20h-256v20h74l-65 190h-152l-65 -190h72v-20h-155v20h62zM304 234l-67 201h-2l-67 -201h136zM324 661q-11 11 -52 49t-58 55t-17 34q0 31 42 31q30 0 42 -18q2 -2 76 -151h-33z" />
    <glyph glyph-name="Aacute" unicode="&#xc1;" horiz-adv-x="573" 
d="M272 608h27l200 -588h61v-20h-256v20h74l-65 190h-152l-65 -190h72v-20h-155v20h62zM304 234l-67 201h-2l-67 -201h136zM249 661h-33q74 149 76 151q12 18 42 18q42 0 42 -31q0 -17 -17 -34t-58 -55t-52 -49z" />
    <glyph glyph-name="Acircumflex" unicode="&#xc2;" horiz-adv-x="573" 
d="M272 608h27l200 -588h61v-20h-256v20h74l-65 190h-152l-65 -190h72v-20h-155v20h62zM304 234l-67 201h-2l-67 -201h136zM260 835h77l92 -173h-104l-66 122l-67 -122h-27z" />
    <glyph glyph-name="Atilde" unicode="&#xc3;" horiz-adv-x="573" 
d="M272 608h27l200 -588h61v-20h-256v20h74l-65 190h-152l-65 -190h72v-20h-155v20h62zM304 234l-67 201h-2l-67 -201h136zM425 763h20q0 -102 -95 -102q-40 0 -96 28q-42 22 -62 22q-36 0 -43 -46h-21q1 29 11 49.5t22 30.5t29 15.5t24.5 6t16.5 0.5q40 0 99 -30
q40 -20 56 -20q12 0 24 11.5t15 34.5z" />
    <glyph glyph-name="Adieresis" unicode="&#xc4;" horiz-adv-x="573" 
d="M272 608h27l200 -588h61v-20h-256v20h74l-65 190h-152l-65 -190h72v-20h-155v20h62zM304 234l-67 201h-2l-67 -201h136zM365 770q23 0 39 -16t16 -38t-16 -38.5t-39 -16.5q-22 0 -38 16t-16 39q0 22 15.5 38t38.5 16zM177 770q23 0 39 -16t16 -38t-16 -38.5t-39 -16.5
q-22 0 -38 16t-16 39q0 22 15.5 38t38.5 16z" />
    <glyph glyph-name="Aring" unicode="&#xc5;" horiz-adv-x="573" 
d="M272 608h27l200 -588h61v-20h-256v20h74l-65 190h-152l-65 -190h72v-20h-155v20h62zM304 234l-67 201h-2l-67 -201h136zM286 838q36 0 62 -25.5t26 -61.5t-25.5 -62t-62.5 -26q-36 0 -61.5 26t-25.5 62q0 37 25.5 62t61.5 25zM286 807q-23 0 -39.5 -16t-16.5 -40
q0 -23 16.5 -40t39.5 -17q24 0 40.5 17t16.5 40q0 24 -16.5 40t-40.5 16z" />
    <glyph glyph-name="AE" unicode="&#xc6;" horiz-adv-x="781" 
d="M243 592h488v-164h-20q-24 144 -159 144h-102v-262h29q37 0 61.5 14t34 36.5t12.5 36.5t3 27h22v-242h-20q-3 58 -35.5 83t-80.5 25h-26v-270h95q43 0 76.5 13.5t51.5 30.5t31 44.5t17 42.5t8 38h20v-189h-493v20h78v198h-154l-92 -198h57v-20h-135v20h53l260 552h-80v20
zM334 238v305h-2l-142 -305h144z" />
    <glyph glyph-name="Ccedilla" unicode="&#xc7;" horiz-adv-x="604" 
d="M242 -155h23q22 -39 57 -39q23 0 37 18.5t14 47.5t-12.5 48t-33.5 19t-37.5 -16t-22.5 -39h-19l4 53q37 23 82 23q46 0 74.5 -25t28.5 -63t-27 -63t-76 -25q-33 0 -54 12t-26.5 22t-11.5 27zM562 556v-147h-18q-22 76 -53 114q-56 67 -135 67q-77 0 -126 -51
q-67 -71 -67 -241q0 -18 0.5 -32.5t4 -46t10 -56t20 -54.5t32 -50t48 -33.5t66.5 -13.5q28 0 56 9t58.5 30t54 62.5t33.5 99.5h19v-168q-98 -54 -211 -54q-80 0 -143 26.5t-101 71.5t-57.5 100t-19.5 115q0 75 28 135t75 96.5t103.5 55.5t117.5 19q117 0 205 -54z" />
    <glyph glyph-name="Egrave" unicode="&#xc8;" horiz-adv-x="594" 
d="M38 593h498v-164h-19q-17 81 -60 112.5t-92 31.5h-134v-262h39q40 0 65.5 12.5t35 34.5t12 35.5t2.5 31.5h21v-242h-20q-3 58 -33.5 83t-73.5 25h-48v-270h117q54 0 92 15.5t59 45t30 52t17 55.5h20v-189h-529v20h78v553h-77v20zM345 661q-11 11 -52 49t-58 55t-17 34
q0 31 42 31q30 0 42 -18q2 -2 76 -151h-33z" />
    <glyph glyph-name="Eacute" unicode="&#xc9;" horiz-adv-x="594" 
d="M38 593h498v-164h-19q-17 81 -60 112.5t-92 31.5h-134v-262h39q40 0 65.5 12.5t35 34.5t12 35.5t2.5 31.5h21v-242h-20q-3 58 -33.5 83t-73.5 25h-48v-270h117q54 0 92 15.5t59 45t30 52t17 55.5h20v-189h-529v20h78v553h-77v20zM270 661h-33q74 149 76 151q12 18 42 18
q42 0 42 -31q0 -17 -17 -34t-58 -55t-52 -49z" />
    <glyph glyph-name="Ecircumflex" unicode="&#xca;" horiz-adv-x="594" 
d="M38 593h498v-164h-19q-17 81 -60 112.5t-92 31.5h-134v-262h39q40 0 65.5 12.5t35 34.5t12 35.5t2.5 31.5h21v-242h-20q-3 58 -33.5 83t-73.5 25h-48v-270h117q54 0 92 15.5t59 45t30 52t17 55.5h20v-189h-529v20h78v553h-77v20zM271 835h77l92 -173h-104l-66 122
l-67 -122h-27z" />
    <glyph glyph-name="Edieresis" unicode="&#xcb;" horiz-adv-x="594" 
d="M38 593h498v-164h-19q-17 81 -60 112.5t-92 31.5h-134v-262h39q40 0 65.5 12.5t35 34.5t12 35.5t2.5 31.5h21v-242h-20q-3 58 -33.5 83t-73.5 25h-48v-270h117q54 0 92 15.5t59 45t30 52t17 55.5h20v-189h-529v20h78v553h-77v20zM391 770q23 0 39 -16t16 -38t-16 -38.5
t-39 -16.5q-22 0 -38 16t-16 39q0 22 15.5 38t38.5 16zM203 770q23 0 39 -16t16 -38t-16 -38.5t-39 -16.5q-22 0 -38 16t-16 39q0 22 15.5 38t38.5 16z" />
    <glyph glyph-name="Igrave" unicode="&#xcc;" horiz-adv-x="344" 
d="M34 592h276v-20h-80v-552h80v-20h-276v20h80v552h-80v20zM210 661q-11 11 -52 49t-58 55t-17 34q0 31 42 31q30 0 42 -18q2 -2 76 -151h-33z" />
    <glyph glyph-name="Iacute" unicode="&#xcd;" horiz-adv-x="344" 
d="M34 592h276v-20h-80v-552h80v-20h-276v20h80v552h-80v20zM135 661h-33q74 149 76 151q12 18 42 18q42 0 42 -31q0 -17 -17 -34t-58 -55t-52 -49z" />
    <glyph glyph-name="Icircumflex" unicode="&#xce;" horiz-adv-x="344" 
d="M34 592h276v-20h-80v-552h80v-20h-276v20h80v552h-80v20zM136 835h77l92 -173h-104l-66 122l-67 -122h-27z" />
    <glyph glyph-name="Idieresis" unicode="&#xcf;" horiz-adv-x="344" 
d="M34 592h276v-20h-80v-552h80v-20h-276v20h80v552h-80v20zM266 770q23 0 39 -16t16 -38t-16.5 -38.5t-38.5 -16.5t-38 16t-16 39q0 22 16 38t38 16zM78 770q23 0 39 -16t16 -38t-16.5 -38.5t-38.5 -16.5t-38 16t-16 39q0 22 16 38t38 16z" />
    <glyph glyph-name="Eth" unicode="&#xd0;" horiz-adv-x="677" 
d="M103 286h-80v24h80v262h-80v20h330q136 0 206 -69q85 -83 85 -226q0 -72 -17.5 -126t-45.5 -86t-69 -51.5t-81.5 -26.5t-90.5 -7h-317v20h80v266zM374 286h-155v-266h107q99 0 143.5 69t44.5 206q0 163 -68 231q-46 46 -137 46h-90v-262h155v-24z" />
    <glyph glyph-name="Ntilde" unicode="&#xd1;" horiz-adv-x="677" 
d="M23 592h214l312 -413h2v393h-91v20h201v-20h-90v-581h-25l-418 552h-2v-523h92v-20h-195v20h83v552h-83v20zM477 763h20q0 -102 -95 -102q-40 0 -96 28q-42 22 -62 22q-36 0 -43 -46h-21q1 29 11 49.5t22 30.5t29 15.5t24.5 6t16.5 0.5q40 0 99 -30q40 -20 56 -20
q12 0 24 11.5t15 34.5z" />
    <glyph glyph-name="Ograve" unicode="&#xd2;" horiz-adv-x="667" 
d="M340 -9q-80 0 -141.5 27.5t-96.5 73t-52 98t-17 108.5q0 143 85 227.5t214 84.5q136 0 219 -88t83 -222q0 -145 -88 -227t-206 -82zM326 11q99 0 138.5 70t39.5 221q0 154 -41 221t-130 67q-52 0 -87 -20.5t-52.5 -62t-24 -89t-6.5 -116.5q0 -46 2.5 -81t12 -77t26.5 -69
t48 -45.5t74 -18.5zM371 661q-11 11 -52 49t-58 55t-17 34q0 31 42 31q30 0 42 -18q2 -2 76 -151h-33z" />
    <glyph glyph-name="Oacute" unicode="&#xd3;" horiz-adv-x="667" 
d="M340 -9q-80 0 -141.5 27.5t-96.5 73t-52 98t-17 108.5q0 143 85 227.5t214 84.5q136 0 219 -88t83 -222q0 -145 -88 -227t-206 -82zM326 11q99 0 138.5 70t39.5 221q0 154 -41 221t-130 67q-52 0 -87 -20.5t-52.5 -62t-24 -89t-6.5 -116.5q0 -46 2.5 -81t12 -77t26.5 -69
t48 -45.5t74 -18.5zM296 661h-33q74 149 76 151q12 18 42 18q42 0 42 -31q0 -17 -17 -34t-58 -55t-52 -49z" />
    <glyph glyph-name="Ocircumflex" unicode="&#xd4;" horiz-adv-x="667" 
d="M340 -9q-80 0 -141.5 27.5t-96.5 73t-52 98t-17 108.5q0 143 85 227.5t214 84.5q136 0 219 -88t83 -222q0 -145 -88 -227t-206 -82zM326 11q99 0 138.5 70t39.5 221q0 154 -41 221t-130 67q-52 0 -87 -20.5t-52.5 -62t-24 -89t-6.5 -116.5q0 -46 2.5 -81t12 -77t26.5 -69
t48 -45.5t74 -18.5zM307 835h77l92 -173h-104l-66 122l-67 -122h-27z" />
    <glyph glyph-name="Otilde" unicode="&#xd5;" horiz-adv-x="667" 
d="M340 -9q-80 0 -141.5 27.5t-96.5 73t-52 98t-17 108.5q0 143 85 227.5t214 84.5q136 0 219 -88t83 -222q0 -145 -88 -227t-206 -82zM326 11q99 0 138.5 70t39.5 221q0 154 -41 221t-130 67q-52 0 -87 -20.5t-52.5 -62t-24 -89t-6.5 -116.5q0 -46 2.5 -81t12 -77t26.5 -69
t48 -45.5t74 -18.5zM472 763h20q0 -102 -95 -102q-40 0 -96 28q-42 22 -62 22q-36 0 -43 -46h-21q1 29 11 49.5t22 30.5t29 15.5t24.5 6t16.5 0.5q40 0 99 -30q40 -20 56 -20q12 0 24 11.5t15 34.5z" />
    <glyph glyph-name="Odieresis" unicode="&#xd6;" horiz-adv-x="667" 
d="M340 -9q-80 0 -141.5 27.5t-96.5 73t-52 98t-17 108.5q0 143 85 227.5t214 84.5q136 0 219 -88t83 -222q0 -145 -88 -227t-206 -82zM326 11q99 0 138.5 70t39.5 221q0 154 -41 221t-130 67q-52 0 -87 -20.5t-52.5 -62t-24 -89t-6.5 -116.5q0 -46 2.5 -81t12 -77t26.5 -69
t48 -45.5t74 -18.5zM427 770q23 0 39 -16t16 -38t-16 -38.5t-39 -16.5q-22 0 -38 16t-16 39q0 22 15.5 38t38.5 16zM239 770q23 0 39 -16t16 -38t-16 -38.5t-39 -16.5q-22 0 -38 16t-16 39q0 22 15.5 38t38.5 16z" />
    <glyph glyph-name="multiply" unicode="&#xd7;" horiz-adv-x="667" 
d="M334 325l204 205l37 -38l-204 -204l202 -202l-37 -37l-202 202l-201 -202l-37 37l201 202l-203 204l37 38z" />
    <glyph glyph-name="Oslash" unicode="&#xd8;" horiz-adv-x="667" 
d="M141 54l-69 -80l-20 16l70 82q-89 92 -89 226q0 142 84.5 227t216.5 85q19 0 37.5 -2t32.5 -5t29.5 -8.5t24 -9t22 -11l18 -10t16.5 -10.5l11 -8l68 79l21 -16l-70 -80q25 -28 40 -49t32.5 -70.5t17.5 -107.5q0 -135 -81.5 -223t-220.5 -88q-48 0 -86 10t-56.5 20.5
t-48.5 32.5zM179 140l299 351q-35 99 -146 99q-54 0 -89.5 -23t-52 -68t-22 -91.5t-5.5 -114.5q0 -91 16 -153zM487 462l-300 -353q6 -14 9.5 -20.5t16 -24t26 -27.5t37.5 -18.5t53 -8.5q43 0 75 15t51 39t30 62.5t15 77.5t4 91q0 95 -17 167z" />
    <glyph glyph-name="Ugrave" unicode="&#xd9;" horiz-adv-x="677" 
d="M21 592h278v-20h-82v-390q0 -171 158 -171q77 0 128 38.5t51 122.5v400h-83v20h185v-20h-82v-399q0 -46 -14 -80t-35 -53t-52.5 -30.5t-60.5 -15t-66 -3.5q-51 0 -90.5 7t-65 17t-43.5 27.5t-27 31.5t-13.5 36.5t-5 35t-0.5 33.5v393h-80v20zM376 661q-11 11 -52 49
t-58 55t-17 34q0 31 42 31q30 0 42 -18q2 -2 76 -151h-33z" />
    <glyph glyph-name="Uacute" unicode="&#xda;" horiz-adv-x="677" 
d="M21 592h278v-20h-82v-390q0 -171 158 -171q77 0 128 38.5t51 122.5v400h-83v20h185v-20h-82v-399q0 -46 -14 -80t-35 -53t-52.5 -30.5t-60.5 -15t-66 -3.5q-51 0 -90.5 7t-65 17t-43.5 27.5t-27 31.5t-13.5 36.5t-5 35t-0.5 33.5v393h-80v20zM311 661h-33q74 149 76 151
q12 18 42 18q42 0 42 -31q0 -17 -17 -34t-58 -55t-52 -49z" />
    <glyph glyph-name="Ucircumflex" unicode="&#xdb;" horiz-adv-x="677" 
d="M21 592h278v-20h-82v-390q0 -171 158 -171q77 0 128 38.5t51 122.5v400h-83v20h185v-20h-82v-399q0 -46 -14 -80t-35 -53t-52.5 -30.5t-60.5 -15t-66 -3.5q-51 0 -90.5 7t-65 17t-43.5 27.5t-27 31.5t-13.5 36.5t-5 35t-0.5 33.5v393h-80v20zM302 835h77l92 -173h-104
l-66 122l-67 -122h-27z" />
    <glyph glyph-name="Udieresis" unicode="&#xdc;" horiz-adv-x="677" 
d="M21 592h278v-20h-82v-390q0 -171 158 -171q77 0 128 38.5t51 122.5v400h-83v20h185v-20h-82v-399q0 -46 -14 -80t-35 -53t-52.5 -30.5t-60.5 -15t-66 -3.5q-51 0 -90.5 7t-65 17t-43.5 27.5t-27 31.5t-13.5 36.5t-5 35t-0.5 33.5v393h-80v20zM432 770q23 0 39 -16t16 -38
t-16.5 -38.5t-38.5 -16.5t-38 16t-16 39q0 22 16 38t38 16zM244 770q23 0 39 -16t16 -38t-16.5 -38.5t-38.5 -16.5t-38 16t-16 39q0 22 16 38t38 16z" />
    <glyph glyph-name="Yacute" unicode="&#xdd;" horiz-adv-x="625" 
d="M17 592h283v-20h-81l148 -242l141 242h-78v20h178v-20h-74l-157 -271v-281h83v-20h-282v20h83v269l-173 283h-71v20zM285 661h-33q74 149 76 151q12 18 42 18q42 0 42 -31q0 -17 -17 -34t-58 -55t-52 -49z" />
    <glyph glyph-name="Thorn" unicode="&#xde;" horiz-adv-x="573" 
d="M21 592h288v-20h-89v-117h137q76 0 130 -39.5t54 -119.5q0 -67 -46 -112q-48 -46 -156 -46h-119v-118h89v-20h-288v20h83v552h-83v20zM301 435h-81v-277h66q65 0 97.5 29.5t32.5 109.5q0 138 -115 138z" />
    <glyph glyph-name="germandbls" unicode="&#xdf;" horiz-adv-x="521" 
d="M78 21v406q0 35 6 62t23.5 58t58.5 48.5t103 17.5q24 0 48.5 -3.5t59.5 -14.5t57 -39t22 -70q0 -29 -10.5 -50.5t-29.5 -33t-33.5 -16.5t-34.5 -10v-2q138 -30 138 -179q0 -94 -45.5 -147t-111.5 -53q-85 0 -85 107l21 -1q-2 -32 14.5 -57.5t39.5 -25.5q47 0 47 144
q0 73 -4 112.5t-18 60t-30 25t-51 4.5v20q41 0 61 18.5t20 76.5q0 114 -82 114q-47 0 -62.5 -30.5t-15.5 -80.5v-461h40v-21h-203v21h57z" />
    <glyph glyph-name="agrave" unicode="&#xe0;" 
d="M389 256v-197q0 -42 28 -42q3 0 18.5 3t18.5 3v-18q-40 -14 -71 -14q-33 0 -54 9.5t-28 19.5t-14 28q-34 -57 -125 -57q-21 0 -41 3.5t-44 13.5t-38.5 31.5t-14.5 53.5q0 27 10.5 46.5t33.5 32.5t45.5 20.5t59.5 15.5q59 14 110 35q1 47 -2 64.5t-16 31.5q-21 18 -56 18
q-17 0 -28.5 -4.5t-16.5 -14.5t-6.5 -16t-3.5 -18q-3 -18 -5.5 -24t-17 -11.5t-44.5 -5.5q-23 0 -31 5.5t-8 23.5q0 85 169 85q96 0 134 -29.5t38 -91.5zM283 117v102q-4 -2 -51.5 -19.5t-56.5 -23.5q-33 -22 -33 -77q0 -42 17.5 -60t39.5 -18q28 0 56 27t28 69zM272 436
q-11 11 -52 49t-58 55t-17 34q0 31 42 31q30 0 42 -18q2 -2 76 -151h-33z" />
    <glyph glyph-name="aacute" unicode="&#xe1;" 
d="M389 256v-197q0 -42 28 -42q3 0 18.5 3t18.5 3v-18q-40 -14 -71 -14q-33 0 -54 9.5t-28 19.5t-14 28q-34 -57 -125 -57q-21 0 -41 3.5t-44 13.5t-38.5 31.5t-14.5 53.5q0 27 10.5 46.5t33.5 32.5t45.5 20.5t59.5 15.5q59 14 110 35q1 47 -2 64.5t-16 31.5q-21 18 -56 18
q-17 0 -28.5 -4.5t-16.5 -14.5t-6.5 -16t-3.5 -18q-3 -18 -5.5 -24t-17 -11.5t-44.5 -5.5q-23 0 -31 5.5t-8 23.5q0 85 169 85q96 0 134 -29.5t38 -91.5zM283 117v102q-4 -2 -51.5 -19.5t-56.5 -23.5q-33 -22 -33 -77q0 -42 17.5 -60t39.5 -18q28 0 56 27t28 69zM197 436
h-33q74 149 76 151q12 18 42 18q42 0 42 -31q0 -17 -17 -34t-58 -55t-52 -49z" />
    <glyph glyph-name="acircumflex" unicode="&#xe2;" 
d="M389 256v-197q0 -42 28 -42q3 0 18.5 3t18.5 3v-18q-40 -14 -71 -14q-33 0 -54 9.5t-28 19.5t-14 28q-34 -57 -125 -57q-21 0 -41 3.5t-44 13.5t-38.5 31.5t-14.5 53.5q0 27 10.5 46.5t33.5 32.5t45.5 20.5t59.5 15.5q59 14 110 35q1 47 -2 64.5t-16 31.5q-21 18 -56 18
q-17 0 -28.5 -4.5t-16.5 -14.5t-6.5 -16t-3.5 -18q-3 -18 -5.5 -24t-17 -11.5t-44.5 -5.5q-23 0 -31 5.5t-8 23.5q0 85 169 85q96 0 134 -29.5t38 -91.5zM283 117v102q-4 -2 -51.5 -19.5t-56.5 -23.5q-33 -22 -33 -77q0 -42 17.5 -60t39.5 -18q28 0 56 27t28 69zM188 610h77
l92 -173h-104l-66 122l-67 -122h-27z" />
    <glyph glyph-name="atilde" unicode="&#xe3;" 
d="M389 256v-197q0 -42 28 -42q3 0 18.5 3t18.5 3v-18q-40 -14 -71 -14q-33 0 -54 9.5t-28 19.5t-14 28q-34 -57 -125 -57q-21 0 -41 3.5t-44 13.5t-38.5 31.5t-14.5 53.5q0 27 10.5 46.5t33.5 32.5t45.5 20.5t59.5 15.5q59 14 110 35q1 47 -2 64.5t-16 31.5q-21 18 -56 18
q-17 0 -28.5 -4.5t-16.5 -14.5t-6.5 -16t-3.5 -18q-3 -18 -5.5 -24t-17 -11.5t-44.5 -5.5q-23 0 -31 5.5t-8 23.5q0 85 169 85q96 0 134 -29.5t38 -91.5zM283 117v102q-4 -2 -51.5 -19.5t-56.5 -23.5q-33 -22 -33 -77q0 -42 17.5 -60t39.5 -18q28 0 56 27t28 69zM373 538h20
q0 -102 -95 -102q-40 0 -96 28q-42 22 -62 22q-36 0 -43 -46h-21q1 29 11 49.5t22 30.5t29 15.5t24.5 6t16.5 0.5q40 0 99 -30q40 -20 56 -20q12 0 24 11.5t15 34.5z" />
    <glyph glyph-name="adieresis" unicode="&#xe4;" 
d="M389 256v-197q0 -42 28 -42q3 0 18.5 3t18.5 3v-18q-40 -14 -71 -14q-33 0 -54 9.5t-28 19.5t-14 28q-34 -57 -125 -57q-21 0 -41 3.5t-44 13.5t-38.5 31.5t-14.5 53.5q0 27 10.5 46.5t33.5 32.5t45.5 20.5t59.5 15.5q59 14 110 35q1 47 -2 64.5t-16 31.5q-21 18 -56 18
q-17 0 -28.5 -4.5t-16.5 -14.5t-6.5 -16t-3.5 -18q-3 -18 -5.5 -24t-17 -11.5t-44.5 -5.5q-23 0 -31 5.5t-8 23.5q0 85 169 85q96 0 134 -29.5t38 -91.5zM283 117v102q-4 -2 -51.5 -19.5t-56.5 -23.5q-33 -22 -33 -77q0 -42 17.5 -60t39.5 -18q28 0 56 27t28 69zM328 545
q23 0 39 -16t16 -38q0 -23 -16.5 -39t-38.5 -16t-38 16t-16 39t16 38.5t38 15.5zM140 545q23 0 39 -16t16 -38q0 -23 -16.5 -39t-38.5 -16t-38 16t-16 39t16 38.5t38 15.5z" />
    <glyph glyph-name="aring" unicode="&#xe5;" 
d="M389 256v-197q0 -42 28 -42q3 0 18.5 3t18.5 3v-18q-40 -14 -71 -14q-33 0 -54 9.5t-28 19.5t-14 28q-34 -57 -125 -57q-21 0 -41 3.5t-44 13.5t-38.5 31.5t-14.5 53.5q0 27 10.5 46.5t33.5 32.5t45.5 20.5t59.5 15.5q59 14 110 35q1 47 -2 64.5t-16 31.5q-21 18 -56 18
q-17 0 -28.5 -4.5t-16.5 -14.5t-6.5 -16t-3.5 -18q-3 -18 -5.5 -24t-17 -11.5t-44.5 -5.5q-23 0 -31 5.5t-8 23.5q0 85 169 85q96 0 134 -29.5t38 -91.5zM283 117v102q-4 -2 -51.5 -19.5t-56.5 -23.5q-33 -22 -33 -77q0 -42 17.5 -60t39.5 -18q28 0 56 27t28 69zM234 613
q36 0 62 -25.5t26 -61.5t-25.5 -62t-62.5 -26q-36 0 -61.5 26t-25.5 62q0 37 25.5 62t61.5 25zM234 582q-23 0 -39.5 -16t-16.5 -40q0 -23 16.5 -40t39.5 -17q24 0 40.5 17t16.5 40q0 24 -16.5 40t-40.5 16z" />
    <glyph glyph-name="ae" unicode="&#xe6;" horiz-adv-x="688" 
d="M662 182h-279q-2 -92 19 -122q31 -46 90 -46q11 0 23.5 2t36.5 9t45 27.5t33 50.5h21q0 -36 -43 -74t-130 -38q-122 0 -183 71q-13 -20 -23 -31.5t-40 -25.5t-70 -14q-23 0 -43 4t-43 13.5t-36.5 31.5t-13.5 53q0 23 8.5 41t20.5 29t34 20.5t38 14.5t44 11q61 14 105 33
q1 43 -0.5 60t-9.5 28q-18 27 -57 27q-23 0 -35.5 -8t-15.5 -17.5t-4 -24.5q-1 -16 -4 -24.5t-16.5 -14.5t-38.5 -6q-28 0 -37.5 6.5t-9.5 23.5q0 85 173 85q74 0 127 -29q44 29 112 29q80 0 136.5 -48t65.5 -147zM383 202h158q0 99 -33 133q-22 22 -47 22q-33 0 -54 -21
q-16 -16 -20 -43.5t-4 -90.5zM276 84v131q-3 -1 -24 -7.5t-39.5 -12.5t-24.5 -9q-46 -26 -46 -90q0 -37 16 -55.5t39 -18.5q28 0 53.5 24.5t25.5 37.5z" />
    <glyph glyph-name="ccedilla" unicode="&#xe7;" horiz-adv-x="448" 
d="M398 98h26q-36 -107 -171 -107q-99 0 -161 55t-62 139q0 75 54.5 133.5t162.5 58.5q69 0 120.5 -25t51.5 -74q0 -45 -48 -45q-19 0 -31 6.5t-17 18.5t-6 19.5t-2 20.5q0 7 -1.5 14.5t-7 19t-19.5 18.5t-36 7q-61 0 -81 -40t-20 -123q0 -110 34 -147q29 -33 84 -33
q22 0 46.5 7.5t49.5 27.5t34 49zM151 -149h21q14 -39 50 -39q20 0 33.5 15.5t13.5 44.5q0 27 -12 45t-30 18q-27 0 -50 -40h-20l3 37q27 22 71 22q48 0 74.5 -22.5t26.5 -59.5t-26.5 -60t-70.5 -23q-30 0 -56 14.5t-28 47.5z" />
    <glyph glyph-name="egrave" unicode="&#xe8;" horiz-adv-x="458" 
d="M433 181h-285q1 -20 2 -30t4 -34.5t11 -38.5t20 -31t33 -25t48 -8q45 0 82.5 24.5t54.5 65.5h25q-8 -21 -16 -34t-27.5 -34.5t-54 -33t-82.5 -11.5q-101 0 -160.5 57.5t-59.5 136.5q0 29 11 60.5t33.5 62t64.5 50t97 19.5q83 0 139 -51.5t60 -144.5zM148 201h165
q0 21 -1 33t-5.5 38t-12.5 41.5t-24 28t-39 12.5q-28 0 -46.5 -16t-25.5 -45.5t-8.5 -46.5t-2.5 -45zM267 436q-11 11 -52 49t-58 55t-17 34q0 31 42 31q30 0 42 -18q2 -2 76 -151h-33z" />
    <glyph glyph-name="eacute" unicode="&#xe9;" horiz-adv-x="458" 
d="M433 181h-285q1 -20 2 -30t4 -34.5t11 -38.5t20 -31t33 -25t48 -8q45 0 82.5 24.5t54.5 65.5h25q-8 -21 -16 -34t-27.5 -34.5t-54 -33t-82.5 -11.5q-101 0 -160.5 57.5t-59.5 136.5q0 29 11 60.5t33.5 62t64.5 50t97 19.5q83 0 139 -51.5t60 -144.5zM148 201h165
q0 21 -1 33t-5.5 38t-12.5 41.5t-24 28t-39 12.5q-28 0 -46.5 -16t-25.5 -45.5t-8.5 -46.5t-2.5 -45zM192 436h-33q74 149 76 151q12 18 42 18q42 0 42 -31q0 -17 -17 -34t-58 -55t-52 -49z" />
    <glyph glyph-name="ecircumflex" unicode="&#xea;" horiz-adv-x="458" 
d="M433 181h-285q1 -20 2 -30t4 -34.5t11 -38.5t20 -31t33 -25t48 -8q45 0 82.5 24.5t54.5 65.5h25q-8 -21 -16 -34t-27.5 -34.5t-54 -33t-82.5 -11.5q-101 0 -160.5 57.5t-59.5 136.5q0 29 11 60.5t33.5 62t64.5 50t97 19.5q83 0 139 -51.5t60 -144.5zM148 201h165
q0 21 -1 33t-5.5 38t-12.5 41.5t-24 28t-39 12.5q-28 0 -46.5 -16t-25.5 -45.5t-8.5 -46.5t-2.5 -45zM203 610h77l92 -173h-104l-66 122l-67 -122h-27z" />
    <glyph glyph-name="edieresis" unicode="&#xeb;" horiz-adv-x="458" 
d="M433 181h-285q1 -20 2 -30t4 -34.5t11 -38.5t20 -31t33 -25t48 -8q45 0 82.5 24.5t54.5 65.5h25q-8 -21 -16 -34t-27.5 -34.5t-54 -33t-82.5 -11.5q-101 0 -160.5 57.5t-59.5 136.5q0 29 11 60.5t33.5 62t64.5 50t97 19.5q83 0 139 -51.5t60 -144.5zM148 201h165
q0 21 -1 33t-5.5 38t-12.5 41.5t-24 28t-39 12.5q-28 0 -46.5 -16t-25.5 -45.5t-8.5 -46.5t-2.5 -45zM323 545q23 0 39 -16t16 -38q0 -23 -16 -39t-39 -16q-22 0 -38 16t-16 39t15.5 38.5t38.5 15.5zM135 545q23 0 39 -16t16 -38q0 -23 -16 -39t-39 -16q-22 0 -38 16t-16 39
t15.5 38.5t38.5 15.5z" />
    <glyph glyph-name="igrave" unicode="&#xec;" horiz-adv-x="281" 
d="M35 367h161v-347h52v-20h-213v20h55v327h-55v20zM178 436q-11 11 -52 49t-58 55t-17 34q0 31 42 31q30 0 42 -18q2 -2 76 -151h-33z" />
    <glyph glyph-name="iacute" unicode="&#xed;" horiz-adv-x="281" 
d="M35 367h161v-347h52v-20h-213v20h55v327h-55v20zM103 436h-33q74 149 76 151q12 18 42 18q42 0 42 -31q0 -17 -17 -34t-58 -55t-52 -49z" />
    <glyph glyph-name="icircumflex" unicode="&#xee;" horiz-adv-x="281" 
d="M35 367h161v-347h52v-20h-213v20h55v327h-55v20zM104 610h77l92 -173h-104l-66 122l-67 -122h-27z" />
    <glyph glyph-name="idieresis" unicode="&#xef;" horiz-adv-x="281" 
d="M35 367h161v-347h52v-20h-213v20h55v327h-55v20zM234 545q23 0 39 -16t16 -38q0 -23 -16.5 -39t-38.5 -16t-38 16t-16 39t16 38.5t38 15.5zM46 545q23 0 39 -16t16 -38q0 -23 -16.5 -39t-38.5 -16t-38 16t-16 39t16 38.5t38 15.5z" />
    <glyph glyph-name="eth" unicode="&#xf0;" horiz-adv-x="490" 
d="M233 496l-137 -74l-13 24l128 68q-44 34 -81 52l17 27q73 -23 114 -50l105 56l13 -24l-90 -50q81 -65 122 -142t41 -189q0 -27 -10 -59t-32 -66t-64.5 -56t-99.5 -22q-88 0 -147.5 54t-59.5 140q0 50 20.5 89.5t52 60.5t63.5 31.5t61 10.5q42 0 80 -19q-33 85 -83 138z
M246 11q21 0 36 6.5t24.5 22t15 29t7.5 40t2.5 42.5t0.5 48q0 158 -88 158q-28 0 -46 -14t-26 -42t-10.5 -54.5t-2.5 -64.5q0 -35 2 -58.5t10 -53t27 -44.5t48 -15z" />
    <glyph glyph-name="ntilde" unicode="&#xf1;" horiz-adv-x="521" 
d="M442 251v-231h57v-20h-212v20h49v245q0 68 -49 68q-32 0 -57 -30t-35 -56t-10 -33v-194h48v-20h-218v20h64v327h-63v20h170v-89h2q4 12 12 25t24 30.5t43 28.5t60 11q115 0 115 -122zM399 538h20q0 -102 -95 -102q-40 0 -96 28q-42 22 -62 22q-36 0 -43 -46h-21
q1 29 11 49.5t22 30.5t29 15.5t24.5 6t16.5 0.5q40 0 99 -30q40 -20 56 -20q12 0 24 11.5t15 34.5z" />
    <glyph glyph-name="ograve" unicode="&#xf2;" 
d="M241 -9q-100 0 -156.5 56.5t-56.5 137.5q0 87 59.5 139.5t145.5 52.5q85 0 146.5 -53t61.5 -141q0 -41 -13.5 -74.5t-35 -54.5t-48.5 -36t-53 -21t-50 -6zM235 11q21 0 36 6.5t24.5 22t15 29t7.5 40t2.5 42.5t0.5 48q0 158 -88 158q-28 0 -46 -14t-26 -42t-10.5 -54.5
t-2.5 -64.5q0 -35 2 -58.5t10 -53t27 -44.5t48 -15zM272 436q-11 11 -52 49t-58 55t-17 34q0 31 42 31q30 0 42 -18q2 -2 76 -151h-33z" />
    <glyph glyph-name="oacute" unicode="&#xf3;" 
d="M241 -9q-100 0 -156.5 56.5t-56.5 137.5q0 87 59.5 139.5t145.5 52.5q85 0 146.5 -53t61.5 -141q0 -41 -13.5 -74.5t-35 -54.5t-48.5 -36t-53 -21t-50 -6zM235 11q21 0 36 6.5t24.5 22t15 29t7.5 40t2.5 42.5t0.5 48q0 158 -88 158q-28 0 -46 -14t-26 -42t-10.5 -54.5
t-2.5 -64.5q0 -35 2 -58.5t10 -53t27 -44.5t48 -15zM197 436h-33q74 149 76 151q12 18 42 18q42 0 42 -31q0 -17 -17 -34t-58 -55t-52 -49z" />
    <glyph glyph-name="ocircumflex" unicode="&#xf4;" 
d="M241 -9q-100 0 -156.5 56.5t-56.5 137.5q0 87 59.5 139.5t145.5 52.5q85 0 146.5 -53t61.5 -141q0 -41 -13.5 -74.5t-35 -54.5t-48.5 -36t-53 -21t-50 -6zM235 11q21 0 36 6.5t24.5 22t15 29t7.5 40t2.5 42.5t0.5 48q0 158 -88 158q-28 0 -46 -14t-26 -42t-10.5 -54.5
t-2.5 -64.5q0 -35 2 -58.5t10 -53t27 -44.5t48 -15zM208 610h77l92 -173h-104l-66 122l-67 -122h-27z" />
    <glyph glyph-name="otilde" unicode="&#xf5;" 
d="M241 -9q-100 0 -156.5 56.5t-56.5 137.5q0 87 59.5 139.5t145.5 52.5q85 0 146.5 -53t61.5 -141q0 -41 -13.5 -74.5t-35 -54.5t-48.5 -36t-53 -21t-50 -6zM235 11q21 0 36 6.5t24.5 22t15 29t7.5 40t2.5 42.5t0.5 48q0 158 -88 158q-28 0 -46 -14t-26 -42t-10.5 -54.5
t-2.5 -64.5q0 -35 2 -58.5t10 -53t27 -44.5t48 -15zM373 538h20q0 -102 -95 -102q-40 0 -96 28q-42 22 -62 22q-36 0 -43 -46h-21q1 29 11 49.5t22 30.5t29 15.5t24.5 6t16.5 0.5q40 0 99 -30q40 -20 56 -20q12 0 24 11.5t15 34.5z" />
    <glyph glyph-name="odieresis" unicode="&#xf6;" 
d="M241 -9q-100 0 -156.5 56.5t-56.5 137.5q0 87 59.5 139.5t145.5 52.5q85 0 146.5 -53t61.5 -141q0 -41 -13.5 -74.5t-35 -54.5t-48.5 -36t-53 -21t-50 -6zM235 11q21 0 36 6.5t24.5 22t15 29t7.5 40t2.5 42.5t0.5 48q0 158 -88 158q-28 0 -46 -14t-26 -42t-10.5 -54.5
t-2.5 -64.5q0 -35 2 -58.5t10 -53t27 -44.5t48 -15zM328 545q23 0 39 -16t16 -38q0 -23 -16.5 -39t-38.5 -16t-38 16t-16 39t16 38.5t38 15.5zM140 545q23 0 39 -16t16 -38q0 -23 -16.5 -39t-38.5 -16t-38 16t-16 39t16 38.5t38 15.5z" />
    <glyph glyph-name="divide" unicode="&#xf7;" horiz-adv-x="667" 
d="M369 493q0 -14 -10.5 -24.5t-25.5 -10.5q-14 0 -24.5 10.5t-10.5 24.5q0 15 10.5 25.5t24.5 10.5q15 0 25.5 -10.5t10.5 -25.5zM70 316h527v-53h-527v53zM369 86q0 -15 -10.5 -25.5t-25.5 -10.5q-14 0 -24.5 10.5t-10.5 25.5q0 14 10.5 24.5t24.5 10.5q15 0 25.5 -10.5
t10.5 -24.5z" />
    <glyph glyph-name="oslash" unicode="&#xf8;" 
d="M114 26l-44 -53l-20 17l43 50q-65 58 -65 143q0 90 59.5 142t145.5 52q26 0 48 -5t35 -10.5t37 -18.5l43 48l19 -17l-40 -46q18 -17 28.5 -28.5t24 -44t13.5 -71.5q0 -65 -33 -110.5t-77.5 -64t-94.5 -18.5q-73 0 -122 35zM150 107l160 186q-22 64 -79 64
q-48 0 -65.5 -43.5t-17.5 -132.5q0 -51 2 -74zM318 263l-161 -188q24 -64 78 -64q49 0 67 38.5t18 111.5q0 17 -1 54.5t-1 47.5z" />
    <glyph glyph-name="ugrave" unicode="&#xf9;" horiz-adv-x="510" 
d="M14 367h166v-269q0 -70 41 -70t75.5 49t34.5 68v202h-57v20h163v-347h59v-20h-165v82h-2q-31 -51 -63.5 -69.5t-76.5 -18.5q-32 0 -55 8.5t-34 20t-17.5 29.5t-7.5 30t-1 30v235h-60v20zM293 436q-11 11 -52 49t-58 55t-17 34q0 31 42 31q30 0 42 -18q2 -2 76 -151h-33z
" />
    <glyph glyph-name="uacute" unicode="&#xfa;" horiz-adv-x="510" 
d="M14 367h166v-269q0 -70 41 -70t75.5 49t34.5 68v202h-57v20h163v-347h59v-20h-165v82h-2q-31 -51 -63.5 -69.5t-76.5 -18.5q-32 0 -55 8.5t-34 20t-17.5 29.5t-7.5 30t-1 30v235h-60v20zM218 436h-33q74 149 76 151q12 18 42 18q42 0 42 -31q0 -17 -17 -34t-58 -55
t-52 -49z" />
    <glyph glyph-name="ucircumflex" unicode="&#xfb;" horiz-adv-x="510" 
d="M14 367h166v-269q0 -70 41 -70t75.5 49t34.5 68v202h-57v20h163v-347h59v-20h-165v82h-2q-31 -51 -63.5 -69.5t-76.5 -18.5q-32 0 -55 8.5t-34 20t-17.5 29.5t-7.5 30t-1 30v235h-60v20zM219 610h77l92 -173h-104l-66 122l-67 -122h-27z" />
    <glyph glyph-name="udieresis" unicode="&#xfc;" horiz-adv-x="510" 
d="M14 367h166v-269q0 -70 41 -70t75.5 49t34.5 68v202h-57v20h163v-347h59v-20h-165v82h-2q-31 -51 -63.5 -69.5t-76.5 -18.5q-32 0 -55 8.5t-34 20t-17.5 29.5t-7.5 30t-1 30v235h-60v20zM349 545q23 0 39 -16t16 -38q0 -23 -16 -39t-39 -16q-22 0 -38 16t-16 39
t15.5 38.5t38.5 15.5zM161 545q23 0 39 -16t16 -38q0 -23 -16 -39t-39 -16q-22 0 -38 16t-16 39t15.5 38.5t38.5 15.5z" />
    <glyph glyph-name="yacute" unicode="&#xfd;" 
d="M10 367h241v-20h-62l109 -228l83 228h-76v20h154v-20h-52l-162 -448q-11 -32 -17.5 -48t-18 -38t-22.5 -32t-28 -17.5t-38 -7.5q-35 0 -61 20.5t-26 58.5q0 21 13 36t35 15q48 0 50 -50q0 -12 -3 -23t-6.5 -17t-3.5 -7q0 -7 14 -7q32 0 61 55q9 18 54 141l-176 369h-62
v20zM197 436h-33q74 149 76 151q12 18 42 18q42 0 42 -31q0 -17 -17 -34t-58 -55t-52 -49z" />
    <glyph glyph-name="thorn" unicode="&#xfe;" horiz-adv-x="521" 
d="M187 51v-266h66v-20h-231v20h59v791h-64v20h172v-280h2q39 58 114 58q80 0 132.5 -56.5t52.5 -135.5q0 -83 -55.5 -137t-131.5 -54q-35 0 -66 18t-48 42h-2zM187 234v-141q27 -41 55.5 -58.5t48.5 -17.5q26 0 42 12t24 38.5t10.5 57t2.5 79.5q0 71 -17 109t-62 38
q-41 0 -72.5 -39t-31.5 -78z" />
    <glyph glyph-name="ydieresis" unicode="&#xff;" 
d="M10 367h241v-20h-62l109 -228l83 228h-76v20h154v-20h-52l-162 -448q-11 -32 -17.5 -48t-18 -38t-22.5 -32t-28 -17.5t-38 -7.5q-35 0 -61 20.5t-26 58.5q0 21 13 36t35 15q48 0 50 -50q0 -12 -3 -23t-6.5 -17t-3.5 -7q0 -7 14 -7q32 0 61 55q9 18 54 141l-176 369h-62
v20zM328 545q23 0 39 -16t16 -38q0 -23 -16.5 -39t-38.5 -16t-38 16t-16 39t16 38.5t38 15.5zM140 545q23 0 39 -16t16 -38q0 -23 -16.5 -39t-38.5 -16t-38 16t-16 39t16 38.5t38 15.5z" />
    <glyph glyph-name="dotlessi" unicode="&#x131;" horiz-adv-x="281" 
d="M35 367h161v-347h52v-20h-213v20h55v327h-55v20z" />
    <glyph glyph-name="Lslash" unicode="&#x141;" horiz-adv-x="573" 
d="M219 312l137 119v-32l-137 -119v-260h128q39 0 69.5 15.5t48 34.5t31.5 50t18 47.5t10 41.5h20v-209h-521v20h80v160l-80 -68v32l80 68v360h-81v20h288v-20h-91v-260z" />
    <glyph glyph-name="lslash" unicode="&#x142;" horiz-adv-x="281" 
d="M197 387l77 77v-38l-77 -77v-329h55v-20h-219v20h58v228l-78 -78v38l78 78v290h-60v20h166v-209z" />
    <glyph glyph-name="OE" unicode="&#x152;" horiz-adv-x="938" 
d="M907 0h-360q-19 0 -111 -4q-18 -1 -44.5 -2t-43 -2t-23.5 -1q-73 0 -130.5 26t-91 69.5t-50.5 96t-17 109.5q0 137 74 224.5t211 87.5q13 0 81 -6t79 -6h407v-162h-20q-25 142 -153 142h-121v-261h41q106 0 111 115h21v-243h-20q-3 59 -36 83.5t-74 24.5h-42v-271h89
q56 0 94.5 13.5t59.5 40.5t31 52t18 63h20v-189zM326 584q-62 0 -103 -42q-33 -34 -45 -91t-12 -177q0 -164 57 -222q39 -41 99 -41q58 0 97 39q35 35 47 93t12 181q0 175 -64 226q-42 34 -88 34z" />
    <glyph glyph-name="oe" unicode="&#x153;" horiz-adv-x="771" 
d="M745 181h-303q2 -74 27 -115q15 -25 44.5 -38.5t57.5 -13.5q46 0 85 23.5t58 64.5h23q-1 -10 -9 -25.5t-25.5 -36t-55 -35t-86.5 -14.5q-110 0 -172 55q-58 -55 -150 -55q-94 0 -151.5 55.5t-57.5 137.5q0 87 61 140t152 53q42 0 75.5 -12t45.5 -21t29 -25q52 58 142 58
q107 0 157.5 -58t52.5 -138zM443 202h181q0 155 -87 155q-90 0 -94 -155zM240 11q31 0 50.5 12.5t28.5 40.5t12 57t3 77q0 159 -93 159q-54 0 -71 -44.5t-17 -145.5q0 -156 87 -156z" />
    <glyph glyph-name="Scaron" unicode="&#x160;" 
d="M406 568v-156h-20q-15 96 -57 136.5t-92 40.5q-48 0 -80 -28t-32 -62q0 -38 31.5 -62.5t99.5 -54.5q100 -43 138.5 -83.5t38.5 -116.5q0 -80 -51.5 -135.5t-160.5 -55.5q-97 0 -183 35l-3 183h19q32 -198 174 -198q59 0 97.5 34.5t38.5 79.5q0 48 -35.5 76t-103.5 57
q-90 38 -132.5 77.5t-42.5 109.5q0 71 49.5 118t135.5 47q75 0 171 -42zM112 836h106l64 -122l66 122h27l-94 -174h-76z" />
    <glyph glyph-name="scaron" unicode="&#x161;" horiz-adv-x="365" 
d="M291 345v-79h-21q-28 91 -99 91q-29 0 -49.5 -13.5t-20.5 -31.5q0 -21 23.5 -36t64.5 -30q77 -28 108.5 -58.5t31.5 -79.5q0 -62 -43.5 -89.5t-104.5 -27.5q-74 0 -145 45v99h20q42 -124 130 -124q29 0 52.5 15t23.5 38q0 22 -22.5 38.5t-72.5 34.5q-66 24 -95 51.5
t-29 76.5q0 61 38.5 86.5t90.5 25.5q64 0 119 -32zM60 611h106l64 -122l66 122h27l-94 -174h-76z" />
    <glyph glyph-name="Ydieresis" unicode="&#x178;" horiz-adv-x="625" 
d="M17 592h283v-20h-81l148 -242l141 242h-78v20h178v-20h-74l-157 -271v-281h83v-20h-282v20h83v269l-173 283h-71v20zM406 770q23 0 39 -16t16 -38t-16.5 -38.5t-38.5 -16.5t-38 16t-16 39q0 22 16 38t38 16zM218 770q23 0 39 -16t16 -38t-16.5 -38.5t-38.5 -16.5t-38 16
t-16 39q0 22 16 38t38 16z" />
    <glyph glyph-name="Zcaron" unicode="&#x17d;" horiz-adv-x="573" 
d="M47 592h481v-8l-366 -564h197q121 0 162 172h20v-192h-517v22l360 550h-136q-142 0 -181 -149h-20v169zM164 836h106l64 -122l66 122h27l-94 -174h-76z" />
    <glyph glyph-name="zcaron" unicode="&#x17e;" horiz-adv-x="427" 
d="M45 367h356v-9l-238 -338h75q37 0 63.5 12.5t41 36.5t20.5 39t13 41h21v-149h-370v13l234 334h-65q-35 0 -61 -11.5t-41 -34t-20.5 -35.5t-12.5 -36h-20zM91 611h106l64 -122l66 122h27l-94 -174h-76z" />
    <glyph glyph-name="florin" unicode="&#x192;" horiz-adv-x="393" 
d="M252 347h90l-5 -20h-90l-69 -253q-93 -334 -264 -334q-33 0 -55.5 9t-32.5 23.5t-14 26t-4 21.5t3 21.5t16.5 24.5t35.5 13q51 0 51 -51q0 -29 -32 -59q12 -9 26 -9q34 0 64 35t44 69t23 67l105 396h-96l5 20h98q9 27 15.5 44.5t20.5 50t30.5 54.5t38.5 45t51.5 35
t63.5 12q40 0 64.5 -20.5t24.5 -58.5q0 -24 -11.5 -42t-37.5 -18q-23 0 -35 14t-12 36q0 23 9 34q1 1 5 6t7.5 9.5t3.5 6.5q0 5 -7 9t-14 4q-19 0 -35 -15t-31 -50.5t-24.5 -66.5t-25.5 -89z" />
    <glyph glyph-name="circumflex" unicode="&#x2c6;" horiz-adv-x="333" 
d="M130 610h77l92 -173h-104l-66 122l-67 -122h-27z" />
    <glyph glyph-name="caron" unicode="&#x2c7;" horiz-adv-x="333" 
d="M34 611h106l64 -122l66 122h27l-94 -174h-76z" />
    <glyph glyph-name="uni02C9" unicode="&#x2c9;" horiz-adv-x="333" 
d="M303 518v-46h-272v46h272z" />
    <glyph glyph-name="breve" unicode="&#x2d8;" horiz-adv-x="333" 
d="M29 581h22q28 -72 114 -72q84 0 116 72h22q-4 -43 -19 -73t-36.5 -43.5t-41 -19t-40.5 -5.5q-11 0 -21 1t-32.5 8.5t-38.5 21t-29.5 42t-15.5 68.5z" />
    <glyph glyph-name="dotaccent" unicode="&#x2d9;" horiz-adv-x="333" 
d="M166 545q23 0 39 -16t16 -38q0 -23 -16.5 -39t-38.5 -16t-38 16t-16 39t16 38.5t38 15.5z" />
    <glyph glyph-name="ring" unicode="&#x2da;" horiz-adv-x="333" 
d="M166 613q36 0 62 -25.5t26 -61.5t-25.5 -62t-62.5 -26q-36 0 -61.5 26t-25.5 62q0 37 25.5 62t61.5 25zM166 582q-23 0 -39.5 -16t-16.5 -40q0 -23 16.5 -40t39.5 -17q24 0 40.5 17t16.5 40q0 24 -16.5 40t-40.5 16z" />
    <glyph glyph-name="ogonek" unicode="&#x2db;" horiz-adv-x="333" 
d="M177 8h28q-55 -52 -55 -93q0 -26 20 -46t50 -20l36 4l3 -10q-36 -12 -62 -12q-22 0 -45.5 6t-45.5 25.5t-22 49.5q0 27 19 49.5t74 46.5z" />
    <glyph glyph-name="tilde" unicode="&#x2dc;" horiz-adv-x="333" 
d="M305 538h20q0 -102 -95 -102q-40 0 -96 28q-42 22 -62 22q-36 0 -43 -46h-21q1 29 11 49.5t22 30.5t29 15.5t24.5 6t16.5 0.5q40 0 99 -30q40 -20 56 -20q12 0 24 11.5t15 34.5z" />
    <glyph glyph-name="hungarumlaut" unicode="&#x2dd;" horiz-adv-x="333" 
d="M117 436h-33q5 9 37.5 75t38.5 76q12 18 43 18q42 0 42 -31q0 -17 -17 -34q-2 -2 -111 -104zM271 436h-33q74 148 76 151q12 18 43 18q41 0 41 -31q0 -18 -16 -34q-17 -17 -58 -54.5t-53 -49.5z" />
    <glyph glyph-name="uni03A9" unicode="&#x3a9;" horiz-adv-x="612" 
d="M572 0h-225v142q46 32 69 106.5t23 153.5q0 131 -34 201.5t-100 70.5q-68 0 -102.5 -74.5t-34.5 -196.5q0 -91 26 -167t73 -98v-138h-227v160h29q0 -28 2 -42.5t16 -28.5t42 -14h92v33q-73 33 -123.5 108t-50.5 185q0 139 69.5 225t188.5 86q117 0 189 -91.5t72 -213.5
q0 -94 -46.5 -178.5t-126.5 -116.5v-37h90q27 0 41 14t16 28.5t2 42.5h30v-160z" />
    <glyph glyph-name="uni03BC" unicode="&#x3bc;" horiz-adv-x="458" 
d="M48 367h104v-220q0 -46 8 -70t15 -27.5t18 -3.5q44 0 78 48v273h105v-241q0 -46 4.5 -63t19.5 -17q22 0 27 56h24q-3 -37 -11.5 -61t-23 -34t-27.5 -13t-34 -3q-40 0 -56 20t-19 54h-2q-8 -23 -43 -48.5t-84 -25.5q-31 0 -50 28h-2q0 -50 4 -76q11 -77 11 -78
q0 -19 -11.5 -35t-34.5 -16q-24 0 -37 15.5t-13 33.5q0 8 2 17t7.5 29.5t10.5 39.5q10 44 10 142v276z" />
    <glyph glyph-name="pi" unicode="&#x3c0;" horiz-adv-x="362" 
d="M349 103q-18 -115 -63 -115q-30 0 -43 32q-16 32 -16 124v252h-74v-178q0 -148 -25 -197q-16 -33 -45 -33q-13 0 -22.5 10.5t-9.5 27.5q0 26 27 41q21 10 26 48.5t5 124.5v156h-12q-19 0 -29 -14t-15 -49l-28 8q1 66 24.5 103.5t57.5 37.5h228v-86h-63v-208q0 -72 7 -100
q6 -29 20 -29q17 0 30 59z" />
    <glyph glyph-name="figuredash" unicode="&#x2012;" horiz-adv-x="479" 
d="M-6 285h491v-63h-491v63z" />
    <glyph glyph-name="endash" unicode="&#x2013;" horiz-adv-x="500" 
d="M-6 285h512v-63h-512v63z" />
    <glyph glyph-name="emdash" unicode="&#x2014;" horiz-adv-x="1000" 
d="M-6 285h1012v-63h-1012v63z" />
    <glyph glyph-name="quoteleft" unicode="&#x2018;" horiz-adv-x="208" 
d="M147 613l15 -18q-50 -27 -68 -59.5t-17 -90.5q17 15 41 15q28 0 43 -19t15 -44q0 -26 -17.5 -45t-47.5 -19q-41 0 -60 33.5t-19 75.5q0 82 55 134q24 22 60 37z" />
    <glyph glyph-name="quoteright" unicode="&#x2019;" horiz-adv-x="208" 
d="M61 333l-15 18q50 27 68 59.5t17 90.5q-17 -15 -41 -15q-28 0 -43 19t-15 44q0 26 17.5 45t47.5 19q41 0 60 -33.5t19 -75.5q0 -82 -55 -134q-24 -22 -60 -37z" />
    <glyph glyph-name="quotesinglbase" unicode="&#x201a;" horiz-adv-x="208" 
d="M61 -162l-15 18q50 27 68 59.5t17 90.5q-17 -15 -41 -15q-28 0 -43 19t-15 44q0 26 17.5 45t47.5 19q41 0 60 -33.5t19 -75.5q0 -82 -55 -134q-24 -22 -60 -37z" />
    <glyph glyph-name="quotedblleft" unicode="&#x201c;" 
d="M178 613l15 -18q-50 -27 -68 -59.5t-17 -90.5q17 15 41 15q28 0 43 -19t15 -44q0 -26 -17.5 -45t-47.5 -19q-41 0 -60 33.5t-19 75.5q0 82 55 134q24 22 60 37zM377 613l15 -18q-50 -27 -68 -59.5t-17 -90.5q17 15 41 15q28 0 43 -19t15 -44q0 -26 -17.5 -45t-47.5 -19
q-41 0 -60 33.5t-19 75.5q0 82 55 134q24 22 60 37z" />
    <glyph glyph-name="quotedblright" unicode="&#x201d;" 
d="M291 333l-15 18q50 27 68 59.5t17 90.5q-17 -15 -41 -15q-28 0 -43 19t-15 44q0 26 17.5 45t47.5 19q41 0 60 -33.5t19 -75.5q0 -82 -55 -134q-24 -22 -60 -37zM92 333l-15 18q50 27 68 59.5t17 90.5q-17 -15 -41 -15q-28 0 -43 19t-15 44q0 26 17.5 45t47.5 19
q41 0 60 -33.5t19 -75.5q0 -82 -55 -134q-24 -22 -60 -37z" />
    <glyph glyph-name="quotedblbase" unicode="&#x201e;" 
d="M291 -162l-15 18q50 27 68 59.5t17 90.5q-17 -15 -41 -15q-28 0 -43 19t-15 44q0 26 17.5 45t47.5 19q41 0 60 -33.5t19 -75.5q0 -82 -55 -134q-24 -22 -60 -37zM92 -162l-15 18q50 27 68 59.5t17 90.5q-17 -15 -41 -15q-28 0 -43 19t-15 44q0 26 17.5 45t47.5 19
q41 0 60 -33.5t19 -75.5q0 -82 -55 -134q-24 -22 -60 -37z" />
    <glyph glyph-name="dagger" unicode="&#x2020;" 
d="M224 324q0 41 -23 113q-23 71 -23 107q0 66 56 66q55 0 55 -68q0 -36 -23 -104q-25 -77 -23 -114q32 2 85 24q50 21 76 21q54 0 54 -52q0 -55 -52 -55q-30 0 -84 21q-47 19 -79 20q4 -159 36 -315q18 -89 18 -122q0 -91 -62 -91t-62 86q0 41 19 138q15 79 22.5 139.5
t8.5 87t1 77.5q-29 -2 -79 -22q-57 -22 -82 -22q-53 0 -53 54q0 53 54 53q27 0 73 -19q45 -19 87 -23z" />
    <glyph glyph-name="daggerdbl" unicode="&#x2021;" 
d="M229 377q0 41 -22 96q-19 47 -19 71q0 27 12 43.5t35 16.5q27 0 36.5 -19.5t9.5 -38.5q0 -25 -18 -71q-23 -60 -23 -98q34 0 86 20q48 17 66 17q22 0 33.5 -12t11.5 -31q0 -20 -12.5 -31.5t-31.5 -11.5q-16 0 -73 18q-49 19 -80 19q4 -54 44 -81q-14 -13 -21 -21
t-15.5 -28.5t-8.5 -44.5q0 -53 44 -94q-22 -16 -31 -33t-12 -49q39 2 92 23q36 15 59 15q20 0 33 -12t13 -32q0 -17 -11.5 -29.5t-33.5 -12.5q-23 0 -67 17q-47 19 -85 20q0 -42 25 -100q19 -45 19 -68t-12.5 -41.5t-36.5 -18.5q-46 0 -46 59q0 24 18 72q23 61 23 97
q-39 -2 -89 -22q-37 -15 -60 -15q-22 0 -35.5 11.5t-13.5 30.5q0 20 13 32t35 12q19 0 65 -17q44 -16 85 -21q-2 32 -11.5 50t-32.5 32q44 38 44 93q0 59 -44 94q24 17 32.5 34t10.5 48q-34 -1 -85 -21q-40 -16 -65 -16q-22 0 -34.5 12t-12.5 31q0 21 14 32t35 11
q11 0 63 -16.5t53 -16.5q15 -4 32 -4z" />
    <glyph glyph-name="bullet" unicode="&#x2022;" horiz-adv-x="302" 
d="M151 406q49 0 85 -35t36 -85t-35.5 -86t-85.5 -36t-85.5 36t-35.5 86t36 85t85 35z" />
    <glyph glyph-name="onedotenleader" unicode="&#x2024;" horiz-adv-x="500" 
d="M250 118q26 0 45 -18.5t19 -44.5t-19 -45t-45 -19t-44.5 19t-18.5 45t18.5 44.5t44.5 18.5z" />
    <glyph glyph-name="twodotenleader" unicode="&#x2025;" horiz-adv-x="500" 
d="M375 118q26 0 45 -18.5t19 -44.5t-19 -45t-45 -19t-44.5 19t-18.5 45t18.5 44.5t44.5 18.5zM125 118q26 0 45 -18.5t19 -44.5t-19 -45t-45 -19t-44.5 19t-18.5 45t18.5 44.5t44.5 18.5z" />
    <glyph glyph-name="ellipsis" unicode="&#x2026;" horiz-adv-x="1000" 
d="M499 118q26 0 45 -18.5t19 -44.5t-19 -45t-45 -19t-44.5 19t-18.5 45t18.5 44.5t44.5 18.5zM832 118q26 0 45 -18.5t19 -44.5t-19 -45t-45 -19t-44.5 19t-18.5 45t18.5 44.5t44.5 18.5zM166 118q26 0 45 -18.5t19 -44.5t-19 -45t-45 -19t-44.5 19t-18.5 45t18.5 44.5
t44.5 18.5z" />
    <glyph glyph-name="perthousand" unicode="&#x2030;" horiz-adv-x="1052" 
d="M185 309q35 0 45 35.5t10 142.5q0 59 -12.5 85t-41.5 26q-37 0 -49 -43q-6 -21 -6 -145q0 -101 54 -101zM189 298q-42 0 -71 17.5t-41.5 45t-17 49.5t-4.5 43q0 69 35.5 112.5t95.5 43.5q64 0 97 -45.5t33 -109.5q0 -73 -38 -114.5t-89 -41.5zM553 609h44l-431 -629h-43z
M866 -9q35 0 45 35.5t10 142.5q0 59 -12.5 85t-41.5 26q-37 0 -49 -43q-6 -21 -6 -145q0 -101 54 -101zM870 -20q-42 0 -71 17.5t-41.5 45t-17 49.5t-4.5 43q0 69 35.5 112.5t95.5 43.5q64 0 97 -45.5t33 -109.5q0 -73 -38 -114.5t-89 -41.5zM535 -9q35 0 45 35.5t10 142.5
q0 59 -12.5 85t-41.5 26q-37 0 -49 -43q-6 -21 -6 -145q0 -101 54 -101zM539 -20q-42 0 -71 17.5t-41.5 45t-17 49.5t-4.5 43q0 69 35.5 112.5t95.5 43.5q64 0 97 -45.5t33 -109.5q0 -73 -38 -114.5t-89 -41.5z" />
    <glyph glyph-name="guilsinglleft" unicode="&#x2039;" horiz-adv-x="281" 
d="M231 377l16 -14l-93 -172l93 -173l-17 -14l-188 175v23z" />
    <glyph glyph-name="guilsinglright" unicode="&#x203a;" horiz-adv-x="281" 
d="M50 377l189 -175v-23l-188 -175l-17 14l93 173l-93 172z" />
    <glyph glyph-name="fraction" unicode="&#x2044;" horiz-adv-x="156" 
d="M264 588h43l-427 -612h-43z" />
    <glyph glyph-name="zero.superior" unicode="&#x2070;" horiz-adv-x="302" 
d="M151 269q-65 0 -101 43t-36 117t36 116.5t101 42.5q66 0 101.5 -42.5t35.5 -116.5q0 -75 -35.5 -117.5t-101.5 -42.5zM102 429q0 -39 1 -58.5t5.5 -41t15 -30t27.5 -8.5t27.5 8.5t15 30t5.5 41t1 58.5t-1 58t-5.5 40.5t-15 30t-27.5 8.5t-27.5 -8.5t-15 -30t-5.5 -40.5
t-1 -58z" />
    <glyph glyph-name="four.superior" unicode="&#x2074;" horiz-adv-x="302" 
d="M185 588h42v-201q23 0 31.5 6t9.5 24h21v-85h-21q-1 18 -10 24.5t-31 6.5v-94h-82v94h-135v19zM145 387v117l-100 -117h100z" />
    <glyph glyph-name="five.superior" unicode="&#x2075;" horiz-adv-x="302" 
d="M243 599h20q-5 -35 -26 -58q-20 -23 -49 -23h-91l-12 -66q10 9 16.5 13t20.5 8t34 4q52 0 83.5 -28.5t31.5 -77.5q0 -51 -34.5 -76.5t-87.5 -25.5q-33 0 -56 7.5t-35 21.5t-17.5 25t-9.5 27l26 6q8 -28 27 -43t40 -15q22 0 40.5 19.5t18.5 56.5q0 41 -16 57.5t-34 16.5
q-29 0 -54 -41h-22l31 176h129q21 0 26 16z" />
    <glyph glyph-name="six.superior" unicode="&#x2076;" horiz-adv-x="302" 
d="M103 452q21 17 35 23t38 6q57 0 84 -31t27 -71q0 -57 -40 -83.5t-91 -26.5q-70 0 -105.5 41t-35.5 102q0 27 7 53.5t24.5 56t54 48t87.5 18.5q34 0 64 -12t30 -40q0 -32 -39 -32q-40 0 -40 29q0 6 5 21q-8 16 -27 16q-29 0 -47 -14.5t-23.5 -38t-7 -37.5t-0.5 -28z
M151 290q48 0 48 86q0 76 -44 76q-23 0 -39 -23.5t-16 -59.5q0 -35 15 -57t36 -22z" />
    <glyph glyph-name="seven.superior" unicode="&#x2077;" horiz-adv-x="302" 
d="M64 583h233q-43 -48 -70.5 -96t-38 -92.5t-13 -68.5t-3.5 -57h-91q8 60 34.5 113t95.5 136h-121q-18 0 -24 -8t-17 -37h-22z" />
    <glyph glyph-name="eight.superior" unicode="&#x2078;" horiz-adv-x="302" 
d="M88 424q-13 8 -20.5 14t-15.5 21.5t-8 35.5q0 40 30.5 66.5t93.5 26.5q101 0 101 -65q0 -40 -44 -62q30 -21 43 -39t13 -46q0 -42 -33 -74.5t-101 -32.5q-56 0 -87 21.5t-31 60.5q0 53 59 73zM198 475q13 22 13 40q0 21 -15 38t-38 17q-24 0 -40 -12t-16 -28
q0 -15 16.5 -25.5t47 -19.5t32.5 -10zM118 416q-24 -20 -24 -57q0 -28 17 -48.5t41 -20.5q22 0 43 15.5t21 38.5q0 22 -20 37t-78 35z" />
    <glyph glyph-name="nine.superior" unicode="&#x2079;" horiz-adv-x="302" 
d="M200 405q-21 -17 -35 -23t-38 -6q-57 0 -84 31t-27 71q0 57 40 83.5t91 26.5q70 0 105.5 -41t35.5 -102q0 -27 -7 -53.5t-24.5 -56t-54 -48t-87.5 -18.5q-34 0 -64 12t-30 40q0 32 39 32q40 0 40 -29q0 -6 -5 -21q8 -16 27 -16q29 0 47 14.5t23.5 38t7 37.5t0.5 28z
M152 567q-48 0 -48 -86q0 -76 44 -76q23 0 39 23.5t16 59.5q0 35 -15 57t-36 22z" />
    <glyph glyph-name="parenleft.superior" unicode="&#x207d;" horiz-adv-x="208" 
d="M185 679l16 -16q-45 -35 -65 -60.5t-31.5 -74t-11.5 -131.5q0 -112 19.5 -162t88.5 -103l-16 -15q-25 17 -40.5 28.5t-44 39.5t-45.5 55.5t-30.5 69.5t-13.5 87q0 77 35.5 145.5t138.5 136.5z" />
    <glyph glyph-name="parenright.superior" unicode="&#x207e;" horiz-adv-x="208" 
d="M23 117l-16 16q45 35 65 60.5t31.5 74t11.5 131.5q0 112 -19.5 162t-88.5 103l16 15q25 -17 40.5 -28.5t44 -39.5t45.5 -55.5t30.5 -69.5t13.5 -87q0 -77 -35.5 -145.5t-138.5 -136.5z" />
    <glyph glyph-name="n.superior" unicode="&#x207f;" horiz-adv-x="365" 
d="M308 447v-158h39v-14h-150v14h39v163q0 51 -35 51q-26 0 -48 -35t-22 -49v-130h39v-14h-152v14h41v222h-41v14h113v-63q33 68 99 68q78 0 78 -83z" />
    <glyph glyph-name="zero.inferior" unicode="&#x2080;" horiz-adv-x="302" 
d="M151 -6q-65 0 -101 43t-36 117t36 116.5t101 42.5q66 0 101.5 -42.5t35.5 -116.5q0 -75 -35.5 -117.5t-101.5 -42.5zM102 154q0 -39 1 -58.5t5.5 -41t15 -30t27.5 -8.5t27.5 8.5t15 30t5.5 41t1 58.5t-1 58t-5.5 40.5t-15 30t-27.5 8.5t-27.5 -8.5t-15 -30t-5.5 -40.5
t-1 -58z" />
    <glyph glyph-name="one.inferior" unicode="&#x2081;" horiz-adv-x="302" 
d="M156 313h36v-292h71v-21h-224v21h71v219q-22 -17 -59 -35l-12 21q74 39 117 87z" />
    <glyph glyph-name="two.inferior" unicode="&#x2082;" horiz-adv-x="302" 
d="M117 64h109q11 0 15.5 5.5t13.5 25.5h25l-40 -95h-228q6 6 32 30t49 45.5t30 28.5q62 62 62 115q0 20 -14.5 40t-40.5 20q-23 0 -40 -17t-17 -38q0 -30 35 -61l-18 -20q-15 14 -21.5 20.5t-15 24t-8.5 35.5q0 35 25.5 62.5t86.5 27.5q51 0 83.5 -21t32.5 -65
q0 -50 -51 -89q-60 -45 -105 -72v-2z" />
    <glyph glyph-name="three.inferior" unicode="&#x2083;" horiz-adv-x="302" 
d="M76 308h202l-109 -118q50 0 75.5 -26.5t25.5 -67.5q0 -54 -40 -78t-88 -24q-108 0 -113 91h26q15 -62 65 -62q28 0 45 21.5t17 56.5q0 33 -14.5 50.5t-32.5 17.5q-11 0 -37 -12l-9 19l65 70h-65q-16 0 -25 -16h-26z" />
    <glyph glyph-name="four.inferior" unicode="&#x2084;" horiz-adv-x="302" 
d="M185 313h42v-201q23 0 31.5 6t9.5 24h21v-85h-21q-1 18 -10 24.5t-31 6.5v-94h-82v94h-135v19zM145 112v117l-100 -117h100z" />
    <glyph glyph-name="five.inferior" unicode="&#x2085;" horiz-adv-x="302" 
d="M243 324h20q-5 -35 -26 -58t-49 -23h-91l-12 -66q10 9 16.5 13t20.5 8t34 4q52 0 83.5 -29t31.5 -77q0 -51 -34.5 -76.5t-87.5 -25.5q-33 0 -56 7.5t-35 21.5t-17.5 25t-9.5 27l26 6q8 -28 27 -43t40 -15q22 0 40.5 19.5t18.5 56.5q0 41 -16 57.5t-34 16.5q-29 0 -54 -41
h-22l31 176h129q21 0 26 16z" />
    <glyph glyph-name="six.inferior" unicode="&#x2086;" horiz-adv-x="302" 
d="M103 177q21 17 35 23t38 6q57 0 84 -31t27 -71q0 -57 -40 -83.5t-91 -26.5q-70 0 -105.5 41t-35.5 102q0 27 7 53.5t24.5 56t54 48t87.5 18.5q34 0 64 -12t30 -40q0 -32 -39 -32q-40 0 -40 29q0 6 5 21q-8 16 -27 16q-29 0 -47 -14.5t-23.5 -38t-7 -37.5t-0.5 -28z
M151 15q48 0 48 86q0 76 -44 76q-23 0 -39 -23.5t-16 -59.5q0 -35 15 -57t36 -22z" />
    <glyph glyph-name="seven.inferior" unicode="&#x2087;" horiz-adv-x="302" 
d="M64 308h233q-43 -48 -70.5 -96t-38 -92.5t-13 -68.5t-3.5 -57h-91q8 60 34.5 113t95.5 136h-121q-18 0 -24 -8t-17 -37h-22z" />
    <glyph glyph-name="eight.inferior" unicode="&#x2088;" horiz-adv-x="302" 
d="M87 149q-13 8 -20.5 14t-15.5 21.5t-8 35.5q0 40 30.5 66.5t93.5 26.5q101 0 101 -65q0 -40 -44 -62q30 -21 43 -39t13 -46q0 -42 -33 -74.5t-101 -32.5q-56 0 -87 21.5t-31 60.5q0 53 59 73zM197 200q13 22 13 40q0 21 -15 38t-38 17q-24 0 -40 -12t-16 -28
q0 -15 16.5 -25.5t47 -19.5t32.5 -10zM117 141q-24 -19 -24 -57q0 -28 17 -48.5t41 -20.5q22 0 43 15.5t21 38.5q0 22 -20 37t-78 35z" />
    <glyph glyph-name="nine.inferior" unicode="&#x2089;" horiz-adv-x="302" 
d="M199 130q-21 -17 -35 -23t-38 -6q-57 0 -84 31t-27 71q0 57 40 83.5t91 26.5q70 0 105.5 -41t35.5 -102q0 -27 -7 -53.5t-24.5 -56t-54 -48t-87.5 -18.5q-34 0 -64 12t-30 40q0 32 39 32q40 0 40 -29q0 -6 -5 -21q8 -16 27 -16q29 0 47 14.5t23.5 38t7 37.5t0.5 28z
M151 292q-48 0 -48 -86q0 -76 44 -76q23 0 39 23.5t16 59.5q0 35 -15 57t-36 22z" />
    <glyph glyph-name="parenleft.inferior" unicode="&#x208d;" horiz-adv-x="208" 
d="M185 398l16 -16q-45 -35 -65 -60.5t-31.5 -74t-11.5 -131.5q0 -112 19.5 -162t88.5 -103l-16 -15q-25 17 -40.5 28.5t-44 39.5t-45.5 55.5t-30.5 69.5t-13.5 87q0 77 35.5 145.5t138.5 136.5z" />
    <glyph glyph-name="parenright.inferior" unicode="&#x208e;" horiz-adv-x="208" 
d="M23 -164l-16 16q45 35 65 60.5t31.5 74t11.5 131.5q0 112 -19.5 162t-88.5 103l16 15q25 -17 40.5 -28.5t44 -39.5t45.5 -55.5t30.5 -69.5t13.5 -87q0 -77 -35.5 -145.5t-138.5 -136.5z" />
    <glyph glyph-name="colonmonetary" unicode="&#x20a1;" horiz-adv-x="604" 
d="M562 556v-147h-17q-38 135 -129 170l-89 -565q18 -2 39 0t49.5 13.5t53 32t46 60t30.5 93.5h20v-168q-108 -62 -242 -53l-20 -127h-34l20 131q-34 6 -60 15l-23 -146h-34l25 160q-47 23 -81 58.5t-51 75.5t-24.5 75.5t-7.5 69.5q0 111 63.5 191.5t189.5 107.5l9 58h35
l-7 -53q24 4 62 1l8 52h34l-8 -55q79 -10 143 -50zM319 586l-83 -533q21 -18 57 -33l88 568q-6 1 -27 1q-22 0 -35 -3zM207 90l75 485q-60 -27 -89 -94t-29 -183q0 -134 43 -208z" />
    <glyph glyph-name="Euro" unicode="&#x20ac;" horiz-adv-x="479" 
d="M411 265l-6 -33h-240q6 -96 37 -158.5t90 -62.5q83 0 143 98l21 -7q-9 -16 -21 -31.5t-32 -35t-48 -32t-58 -12.5q-206 0 -246 241h-51l6 33h43q-1 9 -1 28q0 21 1 32h-49l6 33h45q19 97 81 163.5t165 66.5q88 0 153 -42v-122h-20q-8 58 -42.5 101t-91.5 43
q-59 0 -93 -54t-39 -156h263l-6 -33h-258q0 -6 -0.5 -16t-0.5 -17v-17l1 -10h248z" />
    <glyph glyph-name="afii61289" unicode="&#x2113;" horiz-adv-x="283" 
d="M304 118q-30 -130 -121 -130q-47 0 -79 29q-39 36 -39 110v66q-2 -3 -41 -54l-22 30q4 5 18.5 22t26.5 32t18 26v239q0 90 34.5 157t100.5 67q84 0 84 -99q0 -106 -60 -230q-35 -67 -48 -83v-168q0 -85 37 -85q32 0 54 84zM246 608q0 63 -33 63q-37 0 -37 -126v-172
q1 4 11 25.5t15 33.5q44 95 44 176z" />
    <glyph glyph-name="trademark" unicode="&#x2122;" horiz-adv-x="948" 
d="M-4 592h360v-105h-16q-1 53 -36 71q-19 10 -54 10h-18v-273q0 -19 1 -27.5t5.5 -18t14.5 -12.5t27 -3v-17h-210v17q33 2 40 10.5t7 52.5v271h-16q-28 0 -46.5 -7.5t-27 -21.5t-12 -25t-4.5 -27h-15v105zM407 592h171l107 -230l106 230h161v-18q-32 1 -39.5 -12t-7.5 -50
v-219q0 -23 1.5 -32.5t12 -17.5t33.5 -9v-17h-214v17q34 0 43.5 10t9.5 49v235h-2l-146 -311h-12l-145 311h-2v-233q0 -26 2 -36.5t13.5 -17.5t37.5 -7v-17h-130v17q34 1 42.5 11.5t8.5 50.5v217q0 37 -8.5 49.5t-42.5 11.5v18z" />
    <glyph glyph-name="Omega" unicode="&#x2126;" horiz-adv-x="612" 
d="M572 0h-225v142q46 32 69 106.5t23 153.5q0 131 -34 201.5t-100 70.5q-68 0 -102.5 -74.5t-34.5 -196.5q0 -91 26 -167t73 -98v-138h-227v160h29q0 -28 2 -42.5t16 -28.5t42 -14h92v33q-73 33 -123.5 108t-50.5 185q0 139 69.5 225t188.5 86q117 0 189 -91.5t72 -213.5
q0 -94 -46.5 -178.5t-126.5 -116.5v-37h90q27 0 41 14t16 28.5t2 42.5h30v-160z" />
    <glyph glyph-name="estimated" unicode="&#x212e;" horiz-adv-x="575" 
d="M536 251h-388v-184q56 -56 138 -56q57 0 108 30.5t84 88.5l24 -14q-44 -65 -94.5 -96.5t-121.5 -31.5q-112 0 -178.5 74.5t-66.5 187.5t66 188t177 75q114 0 180 -73t72 -189zM423 275v155q-57 60 -140 60q-80 0 -135 -58v-157h275z" />
    <glyph glyph-name="onethird" unicode="&#x2153;" horiz-adv-x="760" 
d="M534 290h202l-109 -118q50 0 75.5 -26.5t25.5 -67.5q0 -54 -40 -78t-88 -24q-108 0 -113 91h26q15 -62 65 -62q28 0 45 21.5t17 56.5q0 33 -14.5 50.5t-32.5 17.5q-11 0 -37 -12l-9 19l65 70h-65q-16 0 -25 -16h-26zM591 588h43l-427 -612h-43zM156 588h36v-292h71v-21
h-224v21h71v219q-22 -17 -59 -35l-12 21q74 39 117 87z" />
    <glyph glyph-name="twothirds" unicode="&#x2154;" horiz-adv-x="760" 
d="M534 290h202l-109 -118q50 0 75.5 -26.5t25.5 -67.5q0 -54 -40 -78t-88 -24q-108 0 -113 91h26q15 -62 65 -62q28 0 45 21.5t17 56.5q0 33 -14.5 50.5t-32.5 17.5q-11 0 -37 -12l-9 19l65 70h-65q-16 0 -25 -16h-26zM591 588h43l-427 -612h-43zM117 339h109
q11 0 15.5 5.5t13.5 25.5h25l-40 -95h-228q6 6 32 30t49 45.5t30 28.5q62 62 62 115q0 20 -14.5 40t-40.5 20q-23 0 -40 -17t-17 -38q0 -30 35 -61l-18 -20q-15 14 -21.5 20.5t-15 24t-8.5 35.5q0 35 25.5 62.5t86.5 27.5q57 0 86.5 -23.5t29.5 -62.5q0 -50 -51 -89
q-60 -45 -105 -72v-2z" />
    <glyph glyph-name="oneeighth" unicode="&#x215b;" horiz-adv-x="760" 
d="M546 131q-13 8 -20.5 14t-15.5 21.5t-8 35.5q0 40 30.5 66.5t93.5 26.5q101 0 101 -65q0 -40 -44 -62q30 -21 43 -39t13 -46q0 -42 -33 -74.5t-101 -32.5q-56 0 -87 21.5t-31 60.5q0 53 59 73zM576 123q-24 -20 -24 -57q0 -28 17 -48.5t41 -20.5q22 0 43 15.5t21 38.5
q0 22 -20 37t-78 35zM656 182q13 22 13 40q0 21 -15 38t-38 17q-24 0 -40 -12t-16 -28q0 -15 16.5 -25.5t47 -19.5t32.5 -10zM591 588h43l-427 -612h-43zM156 588h36v-292h71v-21h-224v21h71v219q-22 -17 -59 -35l-12 21q74 39 117 87z" />
    <glyph glyph-name="threeeighths" unicode="&#x215c;" horiz-adv-x="760" 
d="M546 131q-13 8 -20.5 14t-15.5 21.5t-8 35.5q0 40 30.5 66.5t93.5 26.5q101 0 101 -65q0 -40 -44 -62q30 -21 43 -39t13 -46q0 -42 -33 -74.5t-101 -32.5q-56 0 -87 21.5t-31 60.5q0 53 59 73zM576 123q-24 -20 -24 -57q0 -28 17 -48.5t41 -20.5q22 0 43 15.5t21 38.5
q0 22 -20 37t-78 35zM656 182q13 22 13 40q0 21 -15 38t-38 17q-24 0 -40 -12t-16 -28q0 -15 16.5 -25.5t47 -19.5t32.5 -10zM591 588h43l-427 -612h-43zM76 583h202l-109 -118q50 0 75.5 -26.5t25.5 -67.5q0 -54 -40 -78t-88 -24q-108 0 -113 91h26q15 -62 65 -62
q28 0 45 21.5t17 56.5q0 33 -14.5 50.5t-32.5 17.5q-11 0 -37 -12l-9 19l65 70h-65q-16 0 -25 -16h-26z" />
    <glyph glyph-name="fiveeighths" unicode="&#x215d;" horiz-adv-x="760" 
d="M546 131q-13 8 -20.5 14t-15.5 21.5t-8 35.5q0 40 30.5 66.5t93.5 26.5q101 0 101 -65q0 -40 -44 -62q30 -21 43 -39t13 -46q0 -42 -33 -74.5t-101 -32.5q-56 0 -87 21.5t-31 60.5q0 53 59 73zM576 123q-24 -20 -24 -57q0 -28 17 -48.5t41 -20.5q22 0 43 15.5t21 38.5
q0 22 -20 37t-78 35zM656 182q13 22 13 40q0 21 -15 38t-38 17q-24 0 -40 -12t-16 -28q0 -15 16.5 -25.5t47 -19.5t32.5 -10zM591 588h43l-427 -612h-43zM243 599h20q-5 -35 -26 -58t-49 -23h-91l-12 -66q10 9 16.5 13t20.5 8t34 4q52 0 83.5 -28.5t31.5 -77.5
q0 -51 -34.5 -76.5t-87.5 -25.5q-33 0 -56 7.5t-35 21.5t-17.5 25t-9.5 27l26 6q8 -28 27 -43t40 -15q22 0 40.5 19.5t18.5 56.5q0 41 -16 57.5t-34 16.5q-29 0 -54 -41h-22l31 176h129q21 0 26 16z" />
    <glyph glyph-name="seveneighths" unicode="&#x215e;" horiz-adv-x="760" 
d="M546 131q-13 8 -20.5 14t-15.5 21.5t-8 35.5q0 40 30.5 66.5t93.5 26.5q101 0 101 -65q0 -40 -44 -62q30 -21 43 -39t13 -46q0 -42 -33 -74.5t-101 -32.5q-56 0 -87 21.5t-31 60.5q0 53 59 73zM576 123q-24 -20 -24 -57q0 -28 17 -48.5t41 -20.5q22 0 43 15.5t21 38.5
q0 22 -20 37t-78 35zM656 182q13 22 13 40q0 21 -15 38t-38 17q-24 0 -40 -12t-16 -28q0 -15 16.5 -25.5t47 -19.5t32.5 -10zM591 588h43l-427 -612h-43zM64 583h233q-43 -48 -70.5 -96t-38 -92.5t-13 -68.5t-3.5 -57h-91q8 60 34.5 113t95.5 136h-121q-18 0 -24 -8t-17 -37
h-22z" />
    <glyph glyph-name="partialdiff" unicode="&#x2202;" horiz-adv-x="426" 
d="M398 484q0 -57 -14.5 -137.5t-35.5 -135.5q-47 -123 -87 -173.5t-100 -50.5q-70 0 -105 54.5t-35 141.5q0 115 55 199t146 84q48 0 75 -26.5t35 -59.5h2q3 46 3 79q0 44 -9.5 85.5t-35.5 74t-64 32.5q-68 0 -117 -69l-17 20q29 53 67.5 86.5t100.5 33.5q42 0 69.5 -18
t41.5 -53t19.5 -74t5.5 -93zM328 328q-19 93 -81 93q-50 0 -84.5 -78t-34.5 -186q0 -60 21 -91.5t52 -31.5q46 0 79 89t48 205z" />
    <glyph glyph-name="Delta" unicode="&#x2206;" horiz-adv-x="479" 
d="M460 0h-436l169 712h99zM340 46l-125 506l-132 -506h257z" />
    <glyph glyph-name="product" unicode="&#x220f;" horiz-adv-x="572" 
d="M540 -131h-208v29h12q37 0 37 80v678h-192v-678q0 -38 6.5 -59t28.5 -21h13v-29h-205v29h12q22 0 29 21t7 59v613q0 26 -2 41t-10 27t-24 12h-12v29h508v-29h-12q-23 0 -30 -20.5t-7 -59.5v-613q0 -38 7 -59t29 -21h13v-29z" />
    <glyph glyph-name="summation" unicode="&#x2211;" horiz-adv-x="424" 
d="M412 40l-9 -171h-387v34l181 366l-175 398v33h369l6 -146h-27q-4 61 -14 81t-40 20h-193l148 -326l-185 -371h239q32 0 42.5 17.5t16.5 68.5z" />
    <glyph glyph-name="minus" unicode="&#x2212;" horiz-adv-x="667" 
d="M70 316h527v-53h-527v53z" />
    <glyph glyph-name="uni2215" unicode="&#x2215;" horiz-adv-x="156" 
d="M264 588h43l-427 -612h-43z" />
    <glyph glyph-name="uni2219" unicode="&#x2219;" horiz-adv-x="208" 
d="M168 291q0 -26 -19 -45t-45 -19t-45 19t-19 45t19 45t45 19t45 -19t19 -45z" />
    <glyph glyph-name="radical" unicode="&#x221a;" horiz-adv-x="284" 
d="M235 728l-64 -740h-54l-81 327l-31 -24l-21 30l92 68l67 -301h1l56 640h35z" />
    <glyph glyph-name="infinity" unicode="&#x221e;" horiz-adv-x="580" 
d="M417 155q-44 0 -71.5 20t-50.5 60h-2q-51 -80 -129 -80q-51 0 -85 35t-34 89q0 55 32.5 91t84.5 36q76 0 119 -79h1q53 79 132 79q49 0 83 -35t34 -89t-33 -90.5t-81 -36.5zM419 364q-8 0 -16 -1.5t-13.5 -3t-12.5 -6.5t-11 -7.5t-10 -10t-8.5 -10.5t-8.5 -12.5t-8 -13
t-8 -14.5t-8 -14q36 -75 101 -75q37 0 57 25t20 59q0 37 -18.5 60.5t-55.5 23.5zM164 364q-35 0 -58 -22.5t-23 -61.5q0 -38 20.5 -61t57.5 -23q18 0 34 9t29.5 26.5t20 29t16.5 31.5q-35 72 -97 72z" />
    <glyph glyph-name="integral" unicode="&#x222b;" horiz-adv-x="221" 
d="M211 695q0 -36 -24 -36q-16 0 -28 13q-9 11 -23 11q-17 0 -17 -27q-1 -20 9 -71.5t13 -77.5q18 -117 18 -241q0 -166 -9 -239q-16 -133 -24 -163q-11 -37 -25.5 -56t-41.5 -19q-20 0 -36.5 14t-16.5 37q0 16 8 27t24 11q13 0 24 -17q5 -8 18 -8q17 0 18 51q0 11 -4.5 34
t-11.5 54.5t-10 50.5q-12 95 -12 221q0 92 6 202q8 133 20 199q9 40 27 61t40 21q27 0 42.5 -15t15.5 -37z" />
    <glyph glyph-name="approxequal" unicode="&#x2248;" horiz-adv-x="667" 
d="M618 443q-48 -115 -157 -115q-59 0 -150 39q-57 26 -107 26q-44 0 -70 -17t-49 -56l-36 18q46 115 160 115q59 0 139 -36q69 -30 120 -30q70 0 114 74zM618 244q-48 -114 -157 -114q-63 0 -150 39q-61 26 -107 26q-44 0 -70 -17.5t-49 -56.5l-36 19q47 114 160 114
q57 0 139 -35q65 -30 120 -30q71 0 114 73z" />
    <glyph glyph-name="notequal" unicode="&#x2260;" horiz-adv-x="666" 
d="M602 168h-316l-89 -149h-58l88 149h-162v53h195l83 140h-278v53h310l94 157h59l-94 -157h168v-53h-200l-84 -140h284v-53z" />
    <glyph glyph-name="lessequal" unicode="&#x2264;" horiz-adv-x="667" 
d="M602 0h-537v53h537v-53zM602 110l-537 217v48l537 219v-59l-459 -183l459 -184v-58z" />
    <glyph glyph-name="greaterequal" unicode="&#x2265;" horiz-adv-x="667" 
d="M602 0h-537v53h537v-53zM602 327l-537 -218v58l459 184l-459 184v58l537 -218v-48z" />
    <glyph glyph-name="lozenge" unicode="&#x25ca;" horiz-adv-x="267" 
d="M276 349l-126 -361h-36l-123 361l124 363h35zM229 349l-96 288l-94 -288l94 -287z" />
    <glyph glyph-name="uni2014.alt" unicode="&#xe000;" horiz-adv-x="750" 
d="M-6 285h762v-63h-762v63z" />
    <glyph glyph-name="one.fitted" unicode="&#xf6dc;" horiz-adv-x="385" 
d="M212 588h35v-567h103v-21h-324v21h111v443q-44 -38 -96 -68l-15 18q71 44 111.5 83.5t74.5 90.5z" />
    <glyph glyph-name="R_p" unicode="&#xf6dd;" horiz-adv-x="1146" 
d="M22 592h305q79 0 132.5 -34t53.5 -102q0 -115 -153 -138v-2q87 -18 118 -54.5t37 -128.5q4 -69 23.5 -91.5t70.5 -25.5v-21h-98q-31 0 -54 11t-34 25.5t-18 39t-8 39t-2 38.5q-1 20 -2 30t-4 32.5t-11 35.5t-20 28t-33 22.5t-48 7.5h-57v-283h79v-21h-277v21h82v550h-82
v21zM261 571h-41v-247h54q114 0 114 129q0 69 -30.5 93.5t-96.5 24.5zM819 51v-265h66v-21h-231v21h59v560h-64v21h172v-51h2q15 19 25.5 29t33.5 19.5t55 9.5q80 0 132.5 -56.5t52.5 -135.5q0 -83 -55.5 -137t-131.5 -54q-36 0 -62 15.5t-54 44.5zM819 234v-141
q21 -37 53 -56.5t51 -19.5q26 0 42 12t24 38.5t10.5 57t2.5 79.5q0 71 -17 109t-62 38q-41 0 -72.5 -39t-31.5 -78z" />
    <glyph glyph-name="cent.inferior" unicode="&#xf6df;" horiz-adv-x="302" 
d="M237 347h20l-54 -134q59 -15 59 -52q0 -26 -27 -26q-32 0 -32 33q0 21 -8 28l-66 -164q16 -19 47 -19q55 0 74 47h13q-19 -60 -96 -60q-31 0 -49 7l-47 -119h-19l50 123q-67 29 -67 98q0 43 34 77.5t115 29.5zM118 52l61 150q-6 3 -14 3q-19 0 -30.5 -7.5t-16 -24t-6 -31
t-1.5 -40.5q0 -29 6 -48z" />
    <glyph glyph-name="cent.superior" unicode="&#xf6e0;" horiz-adv-x="302" 
d="M237 622h20l-54 -134q59 -15 59 -52q0 -26 -27 -26q-32 0 -32 33q0 21 -8 28l-66 -164q16 -19 47 -19q55 0 74 47h13q-19 -60 -96 -60q-31 0 -49 7l-47 -119h-19l50 123q-67 29 -67 98q0 43 34 77.5t115 29.5zM118 327l61 150q-6 3 -14 3q-19 0 -30.5 -7.5t-16 -24
t-6 -31t-1.5 -40.5q0 -29 6 -48z" />
    <glyph glyph-name="comma.inferior" unicode="&#xf6e1;" horiz-adv-x="135" 
d="M37 -101l-14 16q17 9 26.5 15.5t19.5 23.5t10 41q-3 -1 -11 -3q-4 -1 -10 -1q-20 0 -31.5 12t-11.5 28q0 17 13 29t34 12q30 0 43.5 -20t13.5 -47q0 -74 -82 -106z" />
    <glyph glyph-name="comma.superior" unicode="&#xf6e2;" horiz-adv-x="135" 
d="M37 177l-14 16q17 9 26.5 15.5t19.5 23.5t10 41q-3 -1 -11 -3q-4 -1 -10 -1q-20 0 -31.5 12t-11.5 28q0 17 13 29t34 12q30 0 43.5 -20t13.5 -47q0 -74 -82 -106z" />
    <glyph glyph-name="dollar.inferior" unicode="&#xf6e3;" horiz-adv-x="302" 
d="M148 334h22v-25q51 -4 75.5 -22t24.5 -35q0 -13 -8.5 -21.5t-22.5 -8.5q-15 0 -24 9.5t-9 19.5q0 4 1.5 13t1.5 10q0 19 -39 25v-91q106 -43 106 -111q0 -48 -35.5 -72.5t-70.5 -24.5v-68h-22v68q-62 0 -92 22.5t-30 46.5q0 14 11.5 24.5t28.5 10.5q31 0 31 -33
q0 -3 -4.5 -17.5t-4.5 -16.5q0 -17 14.5 -21.5t45.5 -5.5v123q-30 13 -44 20t-31 19.5t-23.5 27t-6.5 34.5q0 10 3.5 20t13.5 22.5t32.5 21.5t55.5 11v25zM148 216v83q-24 -1 -39.5 -12.5t-15.5 -24.5q0 -4 1 -8t3.5 -7.5t4.5 -6t6 -5.5t6.5 -4.5t8 -4t8 -3.5t9 -3.5
t8.5 -3.5zM170 126v-115q54 9 54 55q0 39 -54 60z" />
    <glyph glyph-name="dollar.superior" unicode="&#xf6e4;" horiz-adv-x="302" 
d="M148 609h22v-25q51 -4 75.5 -22t24.5 -35q0 -13 -8.5 -21.5t-22.5 -8.5q-15 0 -24 9.5t-9 19.5q0 4 1.5 13t1.5 10q0 19 -39 25v-91q106 -43 106 -111q0 -48 -35.5 -72.5t-70.5 -24.5v-68h-22v68q-62 0 -92 22.5t-30 46.5q0 14 11.5 24.5t28.5 10.5q31 0 31 -33
q0 -3 -4.5 -17.5t-4.5 -16.5q0 -17 14.5 -21.5t45.5 -5.5v123q-30 13 -44 20t-31 19.5t-23.5 27t-6.5 34.5q0 10 3.5 20t13.5 22.5t32.5 21.5t55.5 11v25zM148 491v83q-24 -1 -39.5 -12.5t-15.5 -24.5q0 -4 1 -8t3.5 -7.5t4.5 -6t6 -5.5t6.5 -4.5t8 -4t8 -3.5t9 -3.5
t8.5 -3.5zM170 401v-115q54 9 54 55q0 39 -54 60z" />
    <glyph glyph-name="hyphen.inferior" unicode="&#xf6e5;" horiz-adv-x="198" 
d="M11 138h175v-53h-175v53z" />
    <glyph glyph-name="hyphen.superior" unicode="&#xf6e6;" horiz-adv-x="198" 
d="M11 434h175v-53h-175v53z" />
    <glyph glyph-name="period.inferior" unicode="&#xf6e7;" horiz-adv-x="135" 
d="M68 -9q-21 0 -34 11.5t-13 28.5q0 18 13 29.5t34 11.5t34 -11.5t13 -29.5q0 -17 -13 -28.5t-34 -11.5z" />
    <glyph glyph-name="period.superior" unicode="&#xf6e8;" horiz-adv-x="135" 
d="M68 269q-21 0 -34 11.5t-13 28.5q0 18 13 29.5t34 11.5t34 -11.5t13 -29.5q0 -17 -13 -28.5t-34 -11.5z" />
    <glyph glyph-name="a.superior" unicode="&#xf6e9;" horiz-adv-x="323" 
d="M202 439v29q0 50 -47 50q-25 0 -32.5 -9t-7.5 -27q0 -16 -10 -22t-37 -6q-15 0 -20.5 3.5t-5.5 16.5q0 58 116 58q70 0 93 -22.5t23 -59.5v-138q0 -22 17 -22q11 0 27 4v-14q-25 -11 -50 -11q-51 0 -66 37q-29 -37 -84 -37q-37 0 -65 17.5t-28 50.5q0 30 20 46.5t83 32.5
q44 11 74 23zM202 355v68q-64 -22 -77 -31q-18 -12 -18 -49q0 -53 38 -53q24 0 40.5 18t16.5 47z" />
    <glyph glyph-name="b.superior" unicode="&#xf6ea;" horiz-adv-x="354" 
d="M17 679h115v-184q31 37 81 37q57 0 91.5 -37t34.5 -94q0 -59 -36.5 -95.5t-90.5 -36.5q-45 0 -80 32v-26h-72v390h-43v14zM132 443v-113q9 -13 14.5 -19.5t20.5 -16t33 -9.5q34 0 45.5 30.5t11.5 91.5q0 23 -1 36.5t-6 34t-17.5 30.5t-32.5 10q-28 0 -48 -26.5t-20 -48.5
z" />
    <glyph glyph-name="d.superior" unicode="&#xf6eb;" horiz-adv-x="354" 
d="M191 679h115v-391h39v-13h-111v34q-34 -40 -78 -40q-57 0 -94 39.5t-37 93.5q0 53 36 91.5t89 38.5q20 0 36.5 -6.5t25.5 -13.5t22 -21v174h-43v14zM234 342v99q0 18 -22.5 47.5t-54.5 29.5q-50 0 -50 -116q0 -119 54 -119q7 0 16.5 3t26.5 17.5t30 38.5z" />
    <glyph glyph-name="e.superior" unicode="&#xf6ec;" horiz-adv-x="313" 
d="M297 398h-195q0 -113 81 -113q68 0 94 61h16q-23 -77 -123 -77q-81 0 -115.5 41t-34.5 90q0 19 6.5 40t21 42.5t44 35.5t69.5 14q56 0 94 -35t42 -99zM102 412h113q0 41 -12.5 73.5t-43.5 32.5q-57 0 -57 -106z" />
    <glyph glyph-name="i.superior" unicode="&#xf6ed;" horiz-adv-x="198" 
d="M98 605q-18 0 -30.5 12t-12.5 30t12.5 30t30.5 12t30.5 -12t12.5 -30t-12.5 -30t-30.5 -12zM23 525h113v-236h39v-14h-152v14h41v222h-41v14z" />
    <glyph glyph-name="l.superior" unicode="&#xf6ee;" horiz-adv-x="198" 
d="M23 679h113v-390h39v-14h-152v14h41v376h-41v14z" />
    <glyph glyph-name="m.superior" unicode="&#xf6ef;" horiz-adv-x="542" 
d="M485 456v-167h39v-14h-150v14h39v167q0 47 -34 47q-16 0 -43.5 -32t-27.5 -51v-131h39v-14h-150v14h39v167q0 20 -9 33.5t-26 13.5q-23 0 -46.5 -33.5t-23.5 -49.5v-131h39v-14h-152v14h41v222h-41v14h113v-61q40 66 98 66q39 0 57 -16.5t22 -49.5q39 66 98 66
q79 0 79 -74z" />
    <glyph glyph-name="o.superior" unicode="&#xf6f0;" horiz-adv-x="323" 
d="M162 532q65 0 103 -37t38 -93t-38 -94.5t-103 -38.5t-103 38.5t-38 95.5q0 55 38 92t103 37zM162 283q37 0 48 28.5t11 90.5q0 61 -11 88.5t-48 27.5q-33 0 -46 -29t-13 -87q0 -63 11 -91t48 -28z" />
    <glyph glyph-name="r.superior" unicode="&#xf6f1;" horiz-adv-x="281" 
d="M139 401v-112h52v-14h-174v14h49v222h-49v14h122v-49q27 54 76 54q26 0 44 -13t18 -40q0 -38 -36 -38t-36 37q0 6 2 14t2 9q0 10 -11 10q-24 0 -41.5 -35.5t-17.5 -72.5z" />
    <glyph glyph-name="s.superior" unicode="&#xf6f2;" horiz-adv-x="250" 
d="M198 511v-55h-13q-18 62 -69 62q-22 0 -34.5 -9.5t-12.5 -21.5q0 -26 64 -47q50 -17 71 -38t21 -51q0 -46 -31 -64t-71 -18q-43 0 -98 30v69h13q12 -46 38.5 -65.5t51.5 -19.5t38 10t13 25q0 17 -14 27t-44 21q-54 21 -72.5 40t-18.5 49q0 77 89 77q41 0 79 -21z" />
    <glyph glyph-name="t.superior" unicode="&#xf6f3;" horiz-adv-x="208" 
d="M60 602h73v-77h61v-18h-61v-159q0 -34 5.5 -46t23.5 -12q13 0 45 26v-22q-27 -25 -66 -25q-44 0 -62.5 20t-18.5 63v155h-43v18h43v77z" />
    <glyph glyph-name="dollar.oldstyle" unicode="&#xf724;" horiz-adv-x="302" 
d="M136 413h33v-34q34 -2 58 -11.5t34.5 -23t14.5 -24t4 -20.5q0 -13 -8 -24.5t-25 -11.5q-16 0 -26.5 9t-10.5 27q0 3 2 15t2 14q0 21 -45 25v-106q28 -12 44 -20t37 -24t31 -39t10 -53q0 -102 -122 -119v-81h-33v81q-53 3 -84 27.5t-31 58.5q0 20 11 31.5t28 11.5
q15 0 25.5 -9.5t10.5 -27.5q0 -14 -7 -26q-7 -13 -7 -14q0 -4 4.5 -9.5t17.5 -11t32 -6.5v155q-27 11 -40.5 18t-32 20t-26.5 30t-8 40q0 35 24.5 64t82.5 34v34zM136 261v91q-47 -12 -47 -46q0 -12 10 -22t16.5 -13.5t20.5 -9.5zM169 160v-141q62 15 62 70q0 44 -62 71z
" />
    <glyph glyph-name="zero.oldstyle" unicode="&#xf730;" horiz-adv-x="479" 
d="M438 195q0 -85 -53.5 -143.5t-150.5 -58.5q-54 0 -93.5 17.5t-60 46.5t-30 59.5t-9.5 62.5q0 48 19.5 91.5t67.5 76t117 32.5q89 0 141 -52t52 -132zM328 163q0 30 -4.5 60.5t-14 62.5t-29.5 52t-47 20q-82 0 -82 -148q0 -52 8.5 -94.5t30 -72t53.5 -29.5q85 0 85 149z
" />
    <glyph glyph-name="one.oldstyle" unicode="&#xf731;" horiz-adv-x="385" 
d="M242 366v-345h94v-21h-296v21h94v324h-94v21h202z" />
    <glyph glyph-name="two.oldstyle" unicode="&#xf732;" horiz-adv-x="479" 
d="M438 147l-88 -147h-325v19q69 41 118.5 76.5t75 59t39.5 46t17 35t3 28.5q0 32 -22 57.5t-69 25.5t-79.5 -31.5t-32.5 -71.5q0 -31 31 -53l-12 -14q-39 27 -39 71q0 19 9 39.5t28 42t57 35.5t88 14q74 0 114 -28.5t40 -75.5q0 -40 -27 -66.5t-99 -64.5q-53 -28 -92 -51
h159q35 0 45.5 6t25.5 29l18 28z" />
    <glyph glyph-name="three.oldstyle" unicode="&#xf733;" horiz-adv-x="479" 
d="M398 366v-12l-230 -217q48 18 86 18q86 0 135.5 -53t49.5 -130q0 -80 -56.5 -139t-164.5 -59q-43 0 -76.5 11.5t-52 25.5t-32.5 36.5t-18 34t-8 27.5l18 5q39 -108 142 -108q43 0 72 19t41.5 49.5t17 55t4.5 49.5q0 58 -27 100t-89 42q-57 0 -109 -49l-15 15l205 191
h-118q-54 0 -76 -10t-47 -44l-15 10l78 132h285z" />
    <glyph glyph-name="four.oldstyle" unicode="&#xf734;" horiz-adv-x="479" 
d="M332 379v-354h17q22 0 32 1t24.5 6.5t20.5 20t6 38.5h19v-155h-19q0 21 -6 35t-18 20t-22.5 7.5t-27.5 1.5h-26v-218h-108v218h-207v17l287 362h28zM224 244l-174 -219h174v219z" />
    <glyph glyph-name="five.oldstyle" unicode="&#xf735;" horiz-adv-x="479" 
d="M77 40l-23 -1l64 323q30 4 55 4q12 0 73 -3t71 -3q41 0 53 8.5t36 52.5l17 -8q-20 -42 -47 -91q-22 -40 -34 -48.5t-37 -8.5q-11 0 -67 4q-42 3 -66 3q-26 0 -52 -3l-37 -184q71 85 166 85q89 0 138.5 -56.5t49.5 -129.5q0 -82 -53 -142t-152 -60q-73 0 -118 31.5
t-73 95.5l19 5q50 -100 142 -100q64 0 93 46t29 117q0 65 -27.5 112t-89.5 47q-47 0 -81.5 -32.5t-48.5 -63.5z" />
    <glyph glyph-name="six.oldstyle" unicode="&#xf736;" horiz-adv-x="479" 
d="M146 304q48 75 129 75q80 0 125.5 -55.5t45.5 -128.5q0 -78 -53.5 -140t-149.5 -62q-94 0 -152 70t-58 194q0 140 64.5 236.5t183.5 96.5q60 0 102.5 -29.5t42.5 -73.5q0 -25 -15.5 -39t-33.5 -14q-17 0 -30.5 12t-13.5 34q0 15 8 29q12 22 12 28q0 15 -20 23.5t-45 8.5
q-34 0 -60 -12.5t-41 -37.5t-24 -47.5t-12.5 -58t-4 -52.5t-0.5 -46v-11zM333 185q0 85 -16 125t-66 40q-17 0 -33.5 -6.5t-35 -23.5t-30 -54t-11.5 -90q0 -162 96 -162q52 0 74 39.5t22 131.5z" />
    <glyph glyph-name="seven.oldstyle" unicode="&#xf737;" horiz-adv-x="479" 
d="M297 138l89 136h-303l-31 -73h-22l72 165h359q-28 -52 -58 -100t-64.5 -100.5t-46.5 -71.5q-120 -190 -120 -209q0 -9 8 -9q2 0 11 2t10 2q23 0 36 -14.5t13 -35.5q0 -26 -14.5 -41t-42.5 -15q-31 0 -45 19.5t-14 39.5q0 48 80 173q31 49 52 82t26 42z" />
    <glyph glyph-name="eight.oldstyle" unicode="&#xf738;" horiz-adv-x="479" 
d="M335 340q55 -24 81.5 -69t26.5 -95q0 -69 -53 -126t-155 -57q-95 0 -146.5 46.5t-51.5 109.5q0 47 30 84.5t86 58.5q-17 9 -27 15.5t-31 24.5t-32 44.5t-11 59.5q0 71 53 112.5t135 41.5q90 0 138 -42t48 -92q0 -69 -91 -116zM312 351q32 34 32 94q0 124 -104 124
q-41 0 -73.5 -25t-32.5 -64q0 -17 4 -30.5t14.5 -24.5t19.5 -18.5t29 -16t32 -13t38.5 -13t40.5 -13.5zM179 280q-40 -22 -52 -52t-12 -72q0 -82 34.5 -112t89.5 -30q40 0 67.5 14.5t39 37t15.5 39.5t4 33q0 71 -73 103q-13 6 -113 39z" />
    <glyph glyph-name="nine.oldstyle" unicode="&#xf739;" horiz-adv-x="479" 
d="M333 68q-48 -75 -129 -75q-80 0 -125.5 55.5t-45.5 128.5q0 78 53.5 140t149.5 62q94 0 152 -70t58 -194q0 -90 -26 -163.5t-83.5 -121.5t-138.5 -48q-60 0 -102.5 29.5t-42.5 73.5q0 25 15.5 39t33.5 14q17 0 30.5 -12t13.5 -34q0 -15 -8 -29q-12 -22 -12 -28
q0 -15 20 -23.5t45 -8.5q34 0 60 12.5t41 37.5t24 47.5t12.5 58t4 52.5t0.5 46v11zM146 187q0 -85 16 -125t66 -40q17 0 33.5 6.5t35 23.5t30 54t11.5 90q0 162 -96 162q-52 0 -74 -39.5t-22 -131.5z" />
    <glyph glyph-name="cent.oldstyle" unicode="&#xf7a2;" horiz-adv-x="281" 
d="M228 393h36l-61 -151q63 -20 63 -62q0 -35 -35 -35q-18 0 -28 10t-12 20t-3 30l-68 -169q18 -18 45 -18q10 0 22.5 3t30 16t26.5 35h26q-14 -39 -39 -59t-76 -20q-26 0 -50 8l-54 -133h-35l58 147q-62 37 -62 106q0 53 43 93t114 33zM101 79l58 143q-18 2 -30 -4.5
t-18 -14.5t-9 -27.5t-3 -29v-34.5q0 -22 2 -33z" />
    </font>
</defs>
</svg>
